<?xml version="1.0" encoding="utf-8"?>
<!-- Generator: Adobe Illustrator 22.0.1, SVG Export Plug-In . SVG Version: 6.00 Build 0)  -->
<svg version="1.1" id="Layer_1" xmlns="http://www.w3.org/2000/svg" xmlns:xlink="http://www.w3.org/1999/xlink" x="0px" y="0px"
	 viewBox="0 0 7770.2 1090" style="enable-background:new 0 0 7770.2 1090;" xml:space="preserve">
<style type="text/css">
	.st0{fill:#F4C70B;}
</style>
<g id="Layer_2_2_">
	<g>
		<path class="st0" d="M500,23C234.3,34.8,22.5,253.9,22.5,522.5H500V23z"/>
		<rect x="545" y="22.5" class="st0" width="477.5" height="500"/>
	</g>
	<g>
		<path class="st0" d="M1665.9,522.5h477.5c0-268.6-211.8-487.7-477.5-499.5L1665.9,522.5L1665.9,522.5z"/>
		<path class="st0" d="M1620.9,23c-265.7,11.8-477.5,230.9-477.5,499.5h477.5V23z"/>
	</g>
	<g>
		<path class="st0" d="M2786.7,522.5h477.5c0-268.6-211.8-487.7-477.5-499.5V522.5z"/>
		<path class="st0" d="M2741.7,23c-265.7,11.8-477.5,230.9-477.5,499.5h477.5V23z"/>
	</g>
	<g>
		<path class="st0" d="M3907.6,522.5h477.5c0-268.6-211.8-487.7-477.5-499.5V522.5z"/>
		<path class="st0" d="M3862.6,23c-265.7,11.8-477.5,230.9-477.5,499.5h477.5V23z"/>
	</g>
	<g>
		<path class="st0" d="M5028.5,522.5H5506c0-268.6-211.8-487.7-477.5-499.5V522.5z"/>
		<rect x="4506" y="22.5" class="st0" width="477.5" height="500"/>
	</g>
	<g>
		<path class="st0" d="M6149.4,522.5h477.5c0-268.6-211.8-487.7-477.5-499.5V522.5z"/>
		<path class="st0" d="M6104.4,23c-265.7,11.8-477.5,230.9-477.5,499.5h477.5V23z"/>
	</g>
	<g>
		<path class="st0" d="M7225.2,23c-265.7,11.8-477.5,230.9-477.5,499.5h477.5V23z"/>
		<path class="st0" d="M7270.2,522.5h477.5c0-268.6-211.8-487.7-477.5-499.5V522.5z"/>
	</g>
</g>
</svg>
