<?xml version="1.0" encoding="utf-8"?>
<!-- Generator: Adobe Illustrator 22.0.1, SVG Export Plug-In . SVG Version: 6.00 Build 0)  -->
<svg version="1.1" id="Layer_1" xmlns="http://www.w3.org/2000/svg" xmlns:xlink="http://www.w3.org/1999/xlink" x="0px" y="0px"
	 viewBox="0 0 7770.2 1090" style="enable-background:new 0 0 7770.2 1090;" xml:space="preserve">
<style type="text/css">
	.st0{fill:#F4C70B;}
</style>
<g id="Layer_2_1_">
	<g>
		<path class="st0" d="M7270.2,567.5V1067c265.7-11.8,477.5-230.9,477.5-499.5H7270.2z"/>
		<path class="st0" d="M7225.2,567.5h-477.5c0,268.6,211.8,487.7,477.5,499.5V567.5z"/>
	</g>
	<g>
		<rect x="4506" y="567.5" class="st0" width="477.5" height="500"/>
		<path class="st0" d="M5028.5,567.5V1067c265.7-11.8,477.5-230.9,477.5-499.5H5028.5z"/>
	</g>
	<g>
		<rect x="3385.1" y="567.5" class="st0" width="477.5" height="500"/>
		<rect x="3907.6" y="567.5" class="st0" width="477.5" height="500"/>
	</g>
	<g>
		<path class="st0" d="M1620.9,567.5h-477.5c0,268.6,211.8,487.7,477.5,499.5V567.5z"/>
		<path class="st0" d="M1665.9,567.5V1067c265.7-11.8,477.5-230.9,477.5-499.5H1665.9z"/>
	</g>
	<g>
		<rect x="545" y="567.5" class="st0" width="477.5" height="500"/>
		<path class="st0" d="M500,567.5H22.5c0,268.6,211.8,487.7,477.5,499.5V567.5z"/>
	</g>
</g>
<path class="st0" d="M2741.7,567.5h-477.5c0,268.6,211.8,487.7,477.5,499.5V567.5z"/>
<path class="st0" d="M6104.4,567.5h-477.5c0,268.6,211.8,487.7,477.5,499.5V567.5z"/>
</svg>
