<?xml version="1.0" encoding="utf-8"?>
<!-- Generator: Adobe Illustrator 22.0.1, SVG Export Plug-In . SVG Version: 6.00 Build 0)  -->
<svg version="1.1" id="Layer_1" xmlns="http://www.w3.org/2000/svg" xmlns:xlink="http://www.w3.org/1999/xlink" x="0px" y="0px"
	 viewBox="0 0 495.3 495.3" style="enable-background:new 0 0 495.3 495.3;" xml:space="preserve">
<style type="text/css">
	.st0{fill:rgb(18, 15, 0);}
</style>
<g>
	<path class="st0" d="M429.9,80c-4.7-5.1-9.6-10-14.7-14.7C371.2,24.8,312.3,0,247.6,0S124.1,24.8,80,65.4C74.9,70,70,74.9,65.4,80
		C24.8,124.1,0,183,0,247.6s24.8,123.5,65.4,167.6c4.7,5.1,9.6,10,14.7,14.7c44.1,40.6,103,65.4,167.6,65.4s123.5-24.8,167.6-65.4
		c5.1-4.7,10-9.6,14.7-14.7c40.6-44.1,65.4-103,65.4-167.6S470.5,124.1,429.9,80z M328.2,310.9c11.8,0,22.3-6.3,28.3-16.9h29.9
		c-8.2,30-32.3,42.4-60.8,42.4c-37.3,0-63.8-29.9-63.8-66.8c0-36.9,28.6-66.8,63.8-66.8c35.2,0,63.8,29.9,63.8,66.8
		c0,3.2-0.1,6.3-0.4,9.2h-91.4C296.8,298.9,311.5,310.9,328.2,310.9z M290.1,187.9v-17.7h71v17.7H290.1z M250.8,272.4
		c2.3,25.6-2.3,41.5-28.5,54.4c-9.8,4.8-22.1,6.3-33.6,6.3h-82.9V158.9h91.2c11.3,0,46.3,6.7,46.4,40.3c0.1,23.2-13,33.8-24,38.9
		C219.6,238.1,248.5,246.8,250.8,272.4z"/>
	<path class="st0" d="M206.6,208.9c0-20.5-23.2-20-23.2-20h-39.2v39.9h39.2C183.5,228.9,206.6,229.4,206.6,208.9z"/>
	<path class="st0" d="M325.7,229.3c-14.1,0-25.9,10.6-28.1,27.2h56.2C351.6,239.8,339.9,229.3,325.7,229.3z"/>
	<path class="st0" d="M185.9,255.9h-41.6v47.6h41.6c0,0,27.6,0.6,27.6-23.8C213.5,255.3,185.9,255.9,185.9,255.9z"/>
</g>
</svg>
