<?xml version="1.0" encoding="utf-8"?>
<!-- Generator: Adobe Illustrator 22.0.1, SVG Export Plug-In . SVG Version: 6.00 Build 0)  -->
<svg version="1.1" id="Layer_1" xmlns="http://www.w3.org/2000/svg" xmlns:xlink="http://www.w3.org/1999/xlink" x="0px" y="0px"
	 viewBox="0 0 736.5 495.3" style="enable-background:new 0 0 736.5 495.3;" xml:space="preserve">
<style type="text/css">
	.st0{fill:#31312d;}
</style>
<g>
	<path class="st0" d="M220.4,231.5c-2.5-1.5-5.3-2.3-8.4-2.3c-3.1,0-5.9,0.8-8.4,2.3c-2.5,1.5-4.5,3.6-5.9,6.4
		c-1.5,2.8-2.2,6-2.2,9.7c0,3.7,0.7,7,2.2,9.7c1.5,2.8,3.5,4.9,5.9,6.4c2.5,1.5,5.3,2.3,8.4,2.3c3.1,0,5.9-0.8,8.4-2.3
		c2.5-1.5,4.5-3.6,5.9-6.4c1.5-2.8,2.2-6,2.2-9.7c0-3.7-0.7-7-2.2-9.7C224.9,235.1,222.9,233,220.4,231.5z"/>
	<polygon class="st0" points="441.6,253.8 455.9,253.8 448.7,235.2 	"/>
	<path class="st0" d="M671,80c-4.7-5.1-9.6-10-14.7-14.7C612.3,24.8,553.4,0,488.7,0H247.6C182.9,0,124.1,24.8,80,65.4
		C74.9,70,70,74.9,65.4,80C24.8,124.1,0,183,0,247.6s24.8,123.5,65.4,167.6c4.7,5.1,9.6,10,14.7,14.7
		c44.1,40.6,102.9,65.4,167.5,65.4h241.1h0.1c64.6,0,123.5-24.8,167.6-65.4c5.1-4.7,10-9.6,14.7-14.7c40.6-44.1,65.4-103,65.4-167.6
		S711.6,124.1,671,80z M123.5,261.1c3.2,3.3,7.3,5,12.5,5c6.2,0,11.5-2.9,16.1-8.6l15.7,14c-3.6,4.8-8.3,8.4-13.9,10.9
		c-5.6,2.5-12,3.8-19.2,3.8c-7.8,0-14.8-1.6-21.1-4.9c-6.2-3.3-11.1-7.8-14.7-13.7c-3.5-5.9-5.3-12.5-5.3-19.9
		c0-7.4,1.8-14.1,5.3-19.9c3.5-5.9,8.4-10.4,14.7-13.7c6.2-3.3,13.3-4.9,21.1-4.9c7.2,0,13.5,1.3,19.2,3.8
		c5.6,2.5,10.2,6.2,13.9,10.9l-15.7,14c-4.6-5.8-9.9-8.6-16.1-8.6c-5.2,0-9.4,1.7-12.5,5c-3.2,3.3-4.7,7.8-4.7,13.4
		C118.8,253.3,120.4,257.7,123.5,261.1z M248.3,267.5c-3.6,5.9-8.5,10.4-14.8,13.7s-13.4,4.9-21.4,4.9c-7.9,0-15.1-1.7-21.4-4.9
		c-6.3-3.3-11.3-7.9-14.8-13.7c-3.6-5.9-5.4-12.5-5.4-19.8s1.8-14,5.4-19.8c3.6-5.9,8.5-10.4,14.8-13.7c6.3-3.3,13.4-4.9,21.4-4.9
		c7.9,0,15.1,1.6,21.4,4.9c6.3,3.3,11.3,7.9,14.8,13.7c3.6,5.9,5.4,12.5,5.4,19.8S251.9,261.6,248.3,267.5z M335.3,284.5h-20.4
		l-28-33.5v33.5h-24.2v-73.7h20.4l28,33.5v-33.5h24.2V284.5z M390.5,284.5h-24.8v-54.4H344v-19.3h68v19.3h-21.6V284.5z M467.7,284.5
		l-4.9-12.8h-28l-4.9,12.8h-25.3l32.2-73.7h24.4l32.2,73.7H467.7z M523.1,261.1c3.2,3.3,7.3,5,12.5,5c6.2,0,11.5-2.9,16.1-8.6
		l15.7,14c-3.6,4.8-8.3,8.4-13.9,10.9c-5.6,2.5-12,3.8-19.2,3.8c-7.8,0-14.8-1.6-21.1-4.9c-6.2-3.3-11.1-7.8-14.7-13.7
		c-3.5-5.9-5.3-12.5-5.3-19.9c0-7.4,1.8-14.1,5.3-19.9c3.5-5.9,8.4-10.4,14.7-13.7c6.2-3.3,13.3-4.9,21.1-4.9
		c7.2,0,13.5,1.3,19.2,3.8c5.6,2.5,10.2,6.2,13.9,10.9l-15.7,14c-4.6-5.8-9.9-8.6-16.1-8.6c-5.2,0-9.4,1.7-12.5,5
		c-3.2,3.3-4.7,7.8-4.7,13.4C518.4,253.3,520,257.7,523.1,261.1z M642.8,230.1h-21.6v54.4h-24.8v-54.4h-21.6v-19.3h68V230.1z"/>
</g>
</svg>
