<?xml version="1.0" encoding="utf-8"?>
<!-- Generator: Adobe Illustrator 22.0.1, SVG Export Plug-In . SVG Version: 6.00 Build 0)  -->
<svg version="1.1" id="Layer_1" xmlns="http://www.w3.org/2000/svg" xmlns:xlink="http://www.w3.org/1999/xlink" x="0px" y="0px"
	 viewBox="0 0 736.5 495.3" style="enable-background:new 0 0 736.5 495.3;" xml:space="preserve">
<style type="text/css">
	.st0{fill:#120F00;}
</style>
<g>
	<path class="st0" d="M275.6,227.8c-2-2-4.3-3.5-7-4.6c-2.7-1.1-5.6-1.6-8.7-1.6c-3.2,0-6.1,0.5-8.7,1.6c-2.7,1.1-5,2.6-7,4.6
		c-2,2-3.5,4.3-4.6,7.1s-1.7,5.8-1.7,9.2c0,3.3,0.6,6.4,1.7,9.2s2.7,5.1,4.6,7.1c2,2,4.3,3.5,7,4.6c2.7,1.1,5.6,1.6,8.7,1.6
		c3.1,0,6-0.5,8.7-1.6c2.7-1.1,5-2.6,7-4.6c2-2,3.5-4.3,4.6-7.1c1.1-2.8,1.7-5.8,1.7-9.2c0-3.3-0.6-6.4-1.7-9.2
		C279.1,232.1,277.5,229.8,275.6,227.8z"/>
	<path class="st0" d="M671,80c-4.7-5.1-9.6-10-14.7-14.7C612.3,24.8,553.4,0,488.7,0H247.6C182.9,0,124.1,24.8,80,65.4
		C74.9,70,70,74.9,65.4,80C24.8,124.1,0,183,0,247.6s24.8,123.5,65.4,167.6c4.7,5.1,9.6,10,14.7,14.7
		c44.1,40.6,102.9,65.4,167.5,65.4v0h241.1v0c0,0,0.1,0,0.1,0c64.6,0,123.5-24.8,167.6-65.4c5.1-4.7,10-9.6,14.7-14.7
		c40.6-44.1,65.4-103,65.4-167.6S711.6,124.1,671,80z M178.1,253.2c1.1,2.8,2.7,5.1,4.6,7.1c2,2,4.3,3.5,7,4.6
		c2.7,1.1,5.6,1.6,8.7,1.6c3.7,0,7-0.8,10-2.4c3-1.6,5.4-3.8,7.3-6.6l5.9,4.3c-1.2,1.8-2.6,3.4-4.3,4.8c-1.6,1.4-3.5,2.6-5.4,3.6
		c-2,1-4.1,1.8-6.4,2.3c-2.3,0.5-4.6,0.8-7.1,0.8c-4.3,0-8.2-0.7-11.8-2.2c-3.6-1.5-6.7-3.5-9.4-6.1c-2.6-2.6-4.7-5.7-6.2-9.3
		c-1.5-3.6-2.2-7.5-2.2-11.8c0-4.3,0.7-8.2,2.2-11.8c1.5-3.6,3.5-6.7,6.2-9.3c2.6-2.6,5.8-4.6,9.4-6.1c3.6-1.5,7.5-2.2,11.8-2.2
		c2.5,0,4.9,0.3,7.2,0.8c2.3,0.5,4.5,1.3,6.5,2.3c2,1,3.8,2.3,5.5,3.7c1.6,1.5,3,3.1,4.1,4.9l-6,4c-1.9-2.8-4.3-5-7.3-6.6
		c-3-1.6-6.3-2.4-10.1-2.4c-3.2,0-6.1,0.5-8.7,1.6c-2.7,1.1-5,2.6-7,4.6c-2,2-3.5,4.3-4.6,7.1s-1.7,5.8-1.7,9.2
		C176.4,247.4,176.9,250.5,178.1,253.2z M288.4,252.2c-0.7,2.6-1.6,4.9-2.9,7.1s-2.7,4.1-4.5,5.9s-3.7,3.2-5.9,4.5
		c-2.2,1.2-4.6,2.2-7.1,2.8c-2.6,0.7-5.3,1-8.1,1c-4.3,0-8.2-0.7-11.8-2.2c-3.6-1.5-6.7-3.5-9.4-6.1c-2.6-2.6-4.7-5.7-6.2-9.3
		c-1.5-3.6-2.2-7.5-2.2-11.8c0-4.3,0.7-8.2,2.2-11.8c1.5-3.6,3.5-6.7,6.2-9.3c2.6-2.6,5.8-4.6,9.4-6.1c3.6-1.5,7.5-2.2,11.8-2.2
		c2.9,0,5.6,0.3,8.1,1c2.6,0.7,4.9,1.6,7.1,2.8c2.2,1.2,4.2,2.7,5.9,4.5c1.8,1.8,3.3,3.7,4.5,5.9c1.2,2.2,2.2,4.5,2.9,7.1
		c0.7,2.6,1,5.3,1,8.1C289.4,246.9,289,249.6,288.4,252.2z M350.5,272.6H344l-34.5-44.8l0,44.8h-7.2v-57.1h6.5l34.5,44.8v-44.8h7.2
		V272.6z M387,272.6h-7.2v-50.2h-19.5v-6.8h46.1v6.8H387V272.6z M452.7,272.6l-6.3-15.6h-27.7l-6.2,15.6h-7.5l23.2-57h8.9l23.2,57
		H452.7z M475.9,253.2c1.1,2.8,2.7,5.1,4.6,7.1c2,2,4.3,3.5,7,4.6c2.7,1.1,5.6,1.6,8.7,1.6c3.7,0,7-0.8,10-2.4
		c3-1.6,5.4-3.8,7.3-6.6l5.9,4.3c-1.2,1.8-2.6,3.4-4.3,4.8c-1.6,1.4-3.5,2.6-5.4,3.6c-2,1-4.1,1.8-6.4,2.3c-2.3,0.5-4.6,0.8-7.1,0.8
		c-4.3,0-8.2-0.7-11.8-2.2c-3.6-1.5-6.7-3.5-9.4-6.1c-2.6-2.6-4.7-5.7-6.2-9.3c-1.5-3.6-2.2-7.5-2.2-11.8c0-4.3,0.7-8.2,2.2-11.8
		c1.5-3.6,3.5-6.7,6.2-9.3c2.6-2.6,5.8-4.6,9.4-6.1c3.6-1.5,7.5-2.2,11.8-2.2c2.5,0,4.9,0.3,7.2,0.8c2.3,0.5,4.5,1.3,6.5,2.3
		c2,1,3.8,2.3,5.5,3.7s3,3.1,4.1,4.9l-6,4c-1.9-2.8-4.3-5-7.3-6.6c-3-1.6-6.3-2.4-10.1-2.4c-3.2,0-6.1,0.5-8.7,1.6
		c-2.7,1.1-5,2.6-7,4.6c-2,2-3.5,4.3-4.6,7.1c-1.1,2.8-1.7,5.8-1.7,9.2C474.2,247.4,474.8,250.5,475.9,253.2z M572.4,222.3H553v50.2
		h-7.2v-50.2h-19.5v-6.8h46.1V222.3z"/>
	<polygon class="st0" points="421.5,250.2 443.7,250.2 432.6,222.6 	"/>
</g>
</svg>
