<?xml version="1.0" encoding="utf-8"?>
<!-- Generator: Adobe Illustrator 22.0.1, SVG Export Plug-In . SVG Version: 6.00 Build 0)  -->
<svg version="1.1" id="Layer_1" xmlns="http://www.w3.org/2000/svg" xmlns:xlink="http://www.w3.org/1999/xlink" x="0px" y="0px"
	 viewBox="0 0 495.3 495.3" style="enable-background:new 0 0 495.3 495.3;" xml:space="preserve">
<style type="text/css">
	.st0{fill:rgb(18, 15, 0);}
</style>
<g>
	<path class="st0" d="M429.9,80c-4.7-5.1-9.6-10-14.7-14.7C371.2,24.8,312.3,0,247.6,0S124.1,24.8,80,65.4C74.9,70,70,74.9,65.4,80
		C24.8,124.1,0,183,0,247.6s24.8,123.5,65.4,167.6c4.7,5.1,9.6,10,14.7,14.7c44.1,40.6,103,65.4,167.6,65.4s123.5-24.8,167.6-65.4
		c5.1-4.7,10-9.6,14.7-14.7c40.6-44.1,65.4-103,65.4-167.6S470.5,124.1,429.9,80z M385.6,247.6c0,76.2-61.8,138-138,138
		c-76.2,0-138-61.8-138-138s61.8-138,138-138C323.9,109.7,385.6,171.4,385.6,247.6z"/>
	<path class="st0" d="M239.7,209c-22.1-40.2-42.5-66.3-42.5-66.3c-32.1,15.4-56,45.1-63.5,80.9h0C133.7,223.5,186.4,224.3,239.7,209
		z"/>
	<path class="st0" d="M220.5,134.4c0,0,21.3,24.7,43.7,66.3c23.2-9.2,45-22.1,60.7-40.2l0,0c-20.6-18.2-47.6-29.3-77.2-29.3
		C238.3,131.2,229.2,132.3,220.5,134.4z"/>
	<path class="st0" d="M177.1,340.2c19.6,14.9,44,23.8,70.6,23.8c15.8,0,30.8-3.1,44.5-8.8c-4.4-30.7-13.6-60.7-24.6-88
		C228.9,279.3,196.7,305.7,177.1,340.2z"/>
	<path class="st0" d="M259.2,247.8c-3-6.6-6.1-13.1-9.2-19.3c-30,9.5-68.9,16.3-118.7,16.1h0c0,1,0,2,0,3c0,30,11.3,57.3,30,78
		C183.2,289.1,217.9,261.2,259.2,247.8z"/>
	<path class="st0" d="M291.7,261.8c9.1,25,16.6,52.7,20.6,82.6c25.9-17.4,44.5-44.9,50-76.8c-15.1-4.8-31.3-7.4-48-7.4
		C306.7,260.2,299.1,260.8,291.7,261.8z"/>
	<path class="st0" d="M283.8,241.7c9.9-1.7,20.1-2.6,30.5-2.6c17.2,0,33.9,2.4,49.7,7c-0.4-27.1-10-52-25.9-71.7l0,0
		c0,0-17.2,25.1-64.3,45.2C277.3,226.7,280.6,234,283.8,241.7z"/>
</g>
</svg>
