<?xml version="1.0" encoding="utf-8"?>
<!-- Generator: Adobe Illustrator 22.0.1, SVG Export Plug-In . SVG Version: 6.00 Build 0)  -->
<svg version="1.1" id="Layer_1" xmlns="http://www.w3.org/2000/svg" xmlns:xlink="http://www.w3.org/1999/xlink" x="0px" y="0px"
	 viewBox="0 0 3446.5 466.2" style="enable-background:new 0 0 3446.5 466.2;" xml:space="preserve">
<style type="text/css">
	.st0{fill:#DDBA00;}
</style>
<g id="Layer_1_1_">
</g>
<g>
	<g>
		<path class="st0" d="M-2403.7-496.1c-118.5,5.3-213,103-213,222.8h213V-496.1z"/>
		<rect x="-2383.7" y="-496.3" class="st0" width="213" height="223.1"/>
		<path class="st0" d="M-1883.6-273.3h213c0-119.8-94.5-217.6-213-222.8V-273.3L-1883.6-273.3z"/>
		<path class="st0" d="M-1903.7-496.1c-118.5,5.3-213,103-213,222.8h213V-496.1z"/>
		<path class="st0" d="M-1383.5-273.3h213c0-119.8-94.5-217.6-213-222.8V-273.3z"/>
		<path class="st0" d="M-1403.6-496.1c-118.5,5.3-213,103-213,222.8h213V-496.1z"/>
		<path class="st0" d="M-883.5-273.3h213c0-119.8-94.5-217.6-213-222.8V-273.3z"/>
		<path class="st0" d="M-903.5-496.1c-118.5,5.3-213,103-213,222.8h213V-496.1z"/>
		<path class="st0" d="M-383.4-273.3h213c0-119.8-94.5-217.6-213-222.8V-273.3z"/>
		<rect x="-616.5" y="-496.3" class="st0" width="213" height="223.1"/>
		<path class="st0" d="M116.7-273.3h213c0-119.8-94.5-217.6-213-222.8V-273.3z"/>
		<path class="st0" d="M96.6-496.1c-118.5,5.3-213,103-213,222.8h213V-496.1z"/>
		<path class="st0" d="M596.7-496.1c-118.5,5.3-213,103-213,222.8h213V-496.1z"/>
		<path class="st0" d="M616.7-273.3h213c0-119.8-94.5-217.6-213-222.8V-273.3z"/>
	</g>
	<g>
		<path class="st0" d="M1063.8-496.1c-118.5,5.3-213,103-213,222.8h213V-496.1z"/>
		<rect x="1083.9" y="-496.3" class="st0" width="213" height="223.1"/>
		<path class="st0" d="M1584-273.3h213c0-119.8-94.5-217.6-213-222.8L1584-273.3L1584-273.3z"/>
		<path class="st0" d="M1563.9-496.1c-118.5,5.3-213,103-213,222.8h213V-496.1z"/>
		<path class="st0" d="M2084-273.3h213c0-119.8-94.5-217.6-213-222.8V-273.3z"/>
		<path class="st0" d="M2063.9-496.1c-118.5,5.3-213,103-213,222.8h213V-496.1z"/>
		<path class="st0" d="M2584.1-273.3h213c0-119.8-94.5-217.6-213-222.8V-273.3z"/>
		<path class="st0" d="M2564-496.1c-118.5,5.3-213,103-213,222.8h213V-496.1z"/>
		<path class="st0" d="M3084.2-273.3h213c0-119.8-94.5-217.6-213-222.8V-273.3z"/>
		<rect x="2851" y="-496.3" class="st0" width="213" height="223.1"/>
		<path class="st0" d="M3584.2-273.3h213c0-119.8-94.5-217.6-213-222.8V-273.3z"/>
		<path class="st0" d="M3564.2-496.1c-118.5,5.3-213,103-213,222.8h213V-496.1z"/>
		<path class="st0" d="M4064.2-496.1c-118.5,5.3-213,103-213,222.8h213V-496.1z"/>
		<path class="st0" d="M4084.3-273.3h213c0-119.8-94.5-217.6-213-222.8V-273.3z"/>
	</g>
	<g>
		<path class="st0" d="M4531.3-496.1c-118.5,5.3-213,103-213,222.8h213V-496.1z"/>
		<rect x="4551.4" y="-496.3" class="st0" width="213" height="223.1"/>
		<path class="st0" d="M5051.5-273.3h213c0-119.8-94.5-217.6-213-222.8L5051.5-273.3L5051.5-273.3z"/>
		<path class="st0" d="M5031.4-496.1c-118.5,5.3-213,103-213,222.8h213V-496.1z"/>
		<path class="st0" d="M5551.5-273.3h213c0-119.8-94.5-217.6-213-222.8V-273.3z"/>
		<path class="st0" d="M5531.5-496.1c-118.5,5.3-213,103-213,222.8h213V-496.1z"/>
		<path class="st0" d="M6051.6-273.3h213c0-119.8-94.5-217.6-213-222.8V-273.3z"/>
		<path class="st0" d="M6031.5-496.1c-118.5,5.3-213,103-213,222.8h213V-496.1z"/>
		<path class="st0" d="M6551.7-273.3h213c0-119.8-94.5-217.6-213-222.8V-273.3z"/>
		<rect x="6318.6" y="-496.3" class="st0" width="213" height="223.1"/>
		<path class="st0" d="M7051.8-273.3h213c0-119.8-94.5-217.6-213-222.8V-273.3z"/>
		<path class="st0" d="M7031.7-496.1c-118.5,5.3-213,103-213,222.8h213V-496.1z"/>
		<path class="st0" d="M7531.7-496.1c-118.5,5.3-213,103-213,222.8h213V-496.1z"/>
		<path class="st0" d="M7551.8-273.3h213c0-119.8-94.5-217.6-213-222.8V-273.3z"/>
	</g>
</g>
<g>
	<g>
		<path class="st0" d="M-1637.8-253.2h-213c0,119.8,94.5,217.6,213,222.8V-253.2z"/>
		<path class="st0" d="M-137.5-253.2h-213c0,119.8,94.5,217.6,213,222.8V-253.2z"/>
		<path class="st0" d="M382.6-253.2v222.8c118.5-5.3,213-103,213-222.8H382.6z"/>
		<path class="st0" d="M362.5-253.2h-213c0,119.8,94.5,217.6,213,222.8V-253.2z"/>
		<rect x="-850.6" y="-253.2" class="st0" width="213" height="223.1"/>
		<path class="st0" d="M-617.5-253.2v222.8c118.5-5.3,213-103,213-222.8H-617.5z"/>
		<rect x="-1350.7" y="-253.2" class="st0" width="213" height="223.1"/>
		<rect x="-1117.6" y="-253.2" class="st0" width="213" height="223.1"/>
		<path class="st0" d="M-2137.8-253.2h-213c0,119.8,94.5,217.6,213,222.8V-253.2z"/>
		<path class="st0" d="M-2117.7-253.2v222.8c118.5-5.3,213-103,213-222.8H-2117.7z"/>
		<rect x="-2617.8" y="-253.2" class="st0" width="213" height="223.1"/>
		<path class="st0" d="M-2637.9-253.2h-213c0,119.8,94.5,217.6,213,222.8V-253.2z"/>
	</g>
	<g>
		<path class="st0" d="M1829.8-253.2h-213c0,119.8,94.5,217.6,213,222.8V-253.2z"/>
		<path class="st0" d="M3330-253.2h-213c0,119.8,94.5,217.6,213,222.8V-253.2z"/>
		<path class="st0" d="M3850.1-253.2v222.8c118.5-5.3,213-103,213-222.8H3850.1z"/>
		<path class="st0" d="M3830-253.2h-213c0,119.8,94.5,217.6,213,222.8V-253.2z"/>
		<rect x="2616.9" y="-253.2" class="st0" width="213" height="223.1"/>
		<path class="st0" d="M2850-253.2v222.8c118.5-5.3,213-103,213-222.8H2850z"/>
		<rect x="2116.8" y="-253.2" class="st0" width="213" height="223.1"/>
		<rect x="2349.9" y="-253.2" class="st0" width="213" height="223.1"/>
		<path class="st0" d="M1329.7-253.2h-213c0,119.8,94.5,217.6,213,222.8V-253.2z"/>
		<path class="st0" d="M1349.8-253.2v222.8c118.5-5.3,213-103,213-222.8H1349.8z"/>
		<rect x="849.7" y="-253.2" class="st0" width="213" height="223.1"/>
		<path class="st0" d="M829.7-253.2h-213c0,119.8,94.5,217.6,213,222.8V-253.2z"/>
	</g>
	<g>
		<path class="st0" d="M5297.3-253.2h-213c0,119.8,94.5,217.6,213,222.8V-253.2z"/>
		<path class="st0" d="M6797.6-253.2h-213c0,119.8,94.5,217.6,213,222.8V-253.2z"/>
		<path class="st0" d="M7317.7-253.2v222.8c118.5-5.3,213-103,213-222.8H7317.7z"/>
		<path class="st0" d="M7297.6-253.2h-213c0,119.8,94.5,217.6,213,222.8V-253.2z"/>
		<rect x="6084.4" y="-253.2" class="st0" width="213" height="223.1"/>
		<path class="st0" d="M6317.5-253.2v222.8c118.5-5.3,213-103,213-222.8H6317.5z"/>
		<rect x="5584.4" y="-253.2" class="st0" width="213" height="223.1"/>
		<rect x="5817.5" y="-253.2" class="st0" width="213" height="223.1"/>
		<path class="st0" d="M4797.3-253.2h-213c0,119.8,94.5,217.6,213,222.8V-253.2z"/>
		<path class="st0" d="M4817.4-253.2v222.8c118.5-5.3,213-103,213-222.8H4817.4z"/>
		<rect x="4317.3" y="-253.2" class="st0" width="213" height="223.1"/>
		<path class="st0" d="M4297.2-253.2h-213c0,119.8,94.5,217.6,213,222.8V-253.2z"/>
	</g>
</g>
<g>
	<g>
		<path class="st0" d="M-2787.3-9.8c-118.5,5.3-213,103-213,222.8h213V-9.8z"/>
		<rect x="-2767.2" y="-10" class="st0" width="213" height="223.1"/>
		<path class="st0" d="M-2267.1,213h213c0-119.8-94.5-217.6-213-222.8V213L-2267.1,213z"/>
		<path class="st0" d="M-2287.2-9.8c-118.5,5.3-213,103-213,222.8h213V-9.8z"/>
		<path class="st0" d="M-1767.1,213h213c0-119.8-94.5-217.6-213-222.8V213z"/>
		<path class="st0" d="M-1787.1-9.8c-118.5,5.3-213,103-213,222.8h213V-9.8z"/>
		<path class="st0" d="M-1267,213h213c0-119.8-94.5-217.6-213-222.8V213z"/>
		<path class="st0" d="M-1287.1-9.8c-118.5,5.3-213,103-213,222.8h213V-9.8z"/>
		<path class="st0" d="M-766.9,213h213c0-119.8-94.5-217.6-213-222.8V213z"/>
		<rect x="-1000" y="-10" class="st0" width="213" height="223.1"/>
		<path class="st0" d="M-266.8,213h213c0-119.8-94.5-217.6-213-222.8V213z"/>
		<path class="st0" d="M-286.9-9.8c-118.5,5.3-213,103-213,222.8h213V-9.8z"/>
		<path class="st0" d="M213.1-9.8C94.6-4.6,0.1,93.2,0.1,213h213V-9.8z"/>
		<path class="st0" d="M233.2,213h213c0-119.8-94.5-217.6-213-222.8V213z"/>
	</g>
	<g>
		<path class="st0" d="M680.3-9.8c-118.5,5.3-213,103-213,222.8h213V-9.8z"/>
		<rect x="700.4" y="-10" class="st0" width="213" height="223.1"/>
		<path class="st0" d="M1200.4,213h213c0-119.8-94.5-217.6-213-222.8V213L1200.4,213z"/>
		<path class="st0" d="M1180.4-9.8c-118.5,5.3-213,103-213,222.8h213V-9.8z"/>
		<path class="st0" d="M1700.5,213h213c0-119.8-94.5-217.6-213-222.8V213z"/>
		<path class="st0" d="M1680.4-9.8c-118.5,5.3-213,103-213,222.8h213V-9.8z"/>
		<path class="st0" d="M2200.5,213h213c0-119.8-94.5-217.6-213-222.8V213z"/>
		<path class="st0" d="M2180.5-9.8c-118.5,5.3-213,103-213,222.8h213V-9.8z"/>
		<path class="st0" d="M2700.6,213h213c0-119.8-94.5-217.6-213-222.8V213z"/>
		<rect x="2467.5" y="-10" class="st0" width="213" height="223.1"/>
		<path class="st0" d="M3200.7,213h213c0-119.8-94.5-217.6-213-222.8V213z"/>
		<path class="st0" d="M3180.6-9.8c-118.5,5.3-213,103-213,222.8h213V-9.8z"/>
		<path class="st0" d="M3680.7-9.8c-118.5,5.3-213,103-213,222.8h213V-9.8z"/>
		<path class="st0" d="M3700.7,213h213c0-119.8-94.5-217.6-213-222.8V213z"/>
	</g>
	<g>
		<path class="st0" d="M4147.8-9.8c-118.5,5.3-213,103-213,222.8h213V-9.8z"/>
		<rect x="4167.9" y="-10" class="st0" width="213" height="223.1"/>
		<path class="st0" d="M4668,213h213c0-119.8-94.5-217.6-213-222.8V213L4668,213z"/>
		<path class="st0" d="M4647.9-9.8c-118.5,5.3-213,103-213,222.8h213V-9.8z"/>
		<path class="st0" d="M5168,213h213c0-119.8-94.5-217.6-213-222.8V213z"/>
		<path class="st0" d="M5147.9-9.8c-118.5,5.3-213,103-213,222.8h213V-9.8z"/>
		<path class="st0" d="M5668.1,213h213c0-119.8-94.5-217.6-213-222.8V213z"/>
		<path class="st0" d="M5648-9.8c-118.5,5.3-213,103-213,222.8h213V-9.8z"/>
		<path class="st0" d="M6168.2,213h213c0-119.8-94.5-217.6-213-222.8V213z"/>
		<rect x="5935.1" y="-10" class="st0" width="213" height="223.1"/>
		<path class="st0" d="M6668.2,213h213c0-119.8-94.5-217.6-213-222.8V213z"/>
		<path class="st0" d="M6648.2-9.8c-118.5,5.3-213,103-213,222.8h213V-9.8z"/>
		<path class="st0" d="M7148.2-9.8c-118.5,5.3-213,103-213,222.8h213V-9.8z"/>
		<path class="st0" d="M7168.3,213h213c0-119.8-94.5-217.6-213-222.8V213z"/>
	</g>
</g>
<g>
	<g>
		<path class="st0" d="M-1543.6,233.1h-213c0,119.8,94.5,217.6,213,222.8V233.1z"/>
		<path class="st0" d="M-43.4,233.1h-213c0,119.8,94.5,217.6,213,222.8V233.1z"/>
		<path class="st0" d="M476.7,233.1V456c118.5-5.3,213-103,213-222.8H476.7z"/>
		<path class="st0" d="M456.7,233.1h-213c0,119.8,94.5,217.6,213,222.8V233.1z"/>
		<rect x="-756.5" y="233.1" class="st0" width="213" height="223.1"/>
		<path class="st0" d="M-523.4,233.1V456c118.5-5.3,213-103,213-222.8H-523.4z"/>
		<rect x="-1256.6" y="233.1" class="st0" width="213" height="223.1"/>
		<rect x="-1023.4" y="233.1" class="st0" width="213" height="223.1"/>
		<path class="st0" d="M-2043.6,233.1h-213c0,119.8,94.5,217.6,213,222.8V233.1z"/>
		<path class="st0" d="M-2023.6,233.1V456c118.5-5.3,213-103,213-222.8H-2023.6z"/>
		<rect x="-2523.6" y="233.1" class="st0" width="213" height="223.1"/>
		<path class="st0" d="M-2543.7,233.1h-213c0,119.8,94.5,217.6,213,222.8V233.1z"/>
	</g>
	<g>
		<path class="st0" d="M1923.9,233.1h-213c0,119.8,94.5,217.6,213,222.8V233.1z"/>
		<path class="st0" d="M3424.2,233.1h-213c0,119.8,94.5,217.6,213,222.8V233.1z"/>
		<path class="st0" d="M3944.3,233.1V456c118.5-5.3,213-103,213-222.8H3944.3z"/>
		<path class="st0" d="M3924.2,233.1h-213c0,119.8,94.5,217.6,213,222.8V233.1z"/>
		<rect x="2711.1" y="233.1" class="st0" width="213" height="223.1"/>
		<path class="st0" d="M2944.2,233.1V456c118.5-5.3,213-103,213-222.8H2944.2z"/>
		<rect x="2211" y="233.1" class="st0" width="213" height="223.1"/>
		<rect x="2444.1" y="233.1" class="st0" width="213" height="223.1"/>
		<path class="st0" d="M1423.9,233.1h-213c0,119.8,94.5,217.6,213,222.8V233.1z"/>
		<path class="st0" d="M1444,233.1V456c118.5-5.3,213-103,213-222.8H1444z"/>
		<rect x="943.9" y="233.1" class="st0" width="213" height="223.1"/>
		<path class="st0" d="M923.8,233.1h-213c0,119.8,94.5,217.6,213,222.8V233.1z"/>
	</g>
	<g>
		<path class="st0" d="M5391.5,233.1h-213c0,119.8,94.5,217.6,213,222.8V233.1z"/>
		<path class="st0" d="M6891.7,233.1h-213c0,119.8,94.5,217.6,213,222.8V233.1z"/>
		<path class="st0" d="M7411.8,233.1V456c118.5-5.3,213-103,213-222.8H7411.8z"/>
		<path class="st0" d="M7391.7,233.1h-213c0,119.8,94.5,217.6,213,222.8V233.1z"/>
		<rect x="6178.6" y="233.1" class="st0" width="213" height="223.1"/>
		<path class="st0" d="M6411.7,233.1V456c118.5-5.3,213-103,213-222.8H6411.7z"/>
		<rect x="5678.5" y="233.1" class="st0" width="213" height="223.1"/>
		<rect x="5911.6" y="233.1" class="st0" width="213" height="223.1"/>
		<path class="st0" d="M4891.4,233.1h-213c0,119.8,94.5,217.6,213,222.8V233.1z"/>
		<path class="st0" d="M4911.5,233.1V456c118.5-5.3,213-103,213-222.8H4911.5z"/>
		<rect x="4411.4" y="233.1" class="st0" width="213" height="223.1"/>
		<path class="st0" d="M4391.4,233.1h-213c0,119.8,94.5,217.6,213,222.8V233.1z"/>
	</g>
</g>
<g>
	<g>
		<path class="st0" d="M-3010.3,476.5c-118.5,5.3-213,103-213,222.8h213V476.5z"/>
		<rect x="-2990.2" y="476.3" class="st0" width="213" height="223.1"/>
		<path class="st0" d="M-2490.2,699.3h213c0-119.8-94.5-217.6-213-222.8V699.3L-2490.2,699.3z"/>
		<path class="st0" d="M-2510.2,476.5c-118.5,5.3-213,103-213,222.8h213V476.5z"/>
		<path class="st0" d="M-1990.1,699.3h213c0-119.8-94.5-217.6-213-222.8V699.3z"/>
		<path class="st0" d="M-2010.2,476.5c-118.5,5.3-213,103-213,222.8h213V476.5z"/>
		<path class="st0" d="M-1490.1,699.3h213c0-119.8-94.5-217.6-213-222.8V699.3z"/>
		<path class="st0" d="M-1510.1,476.5c-118.5,5.3-213,103-213,222.8h213V476.5z"/>
		<path class="st0" d="M-990,699.3h213c0-119.8-94.5-217.6-213-222.8V699.3z"/>
		<rect x="-1223.1" y="476.3" class="st0" width="213" height="223.1"/>
		<path class="st0" d="M-489.9,699.3h213c0-119.8-94.5-217.6-213-222.8V699.3z"/>
		<path class="st0" d="M-510,476.5c-118.5,5.3-213,103-213,222.8h213V476.5z"/>
		<path class="st0" d="M-9.9,476.5c-118.5,5.3-213,103-213,222.8h213V476.5z"/>
		<path class="st0" d="M10.1,699.3h213c0-119.8-94.5-217.6-213-222.8V699.3z"/>
	</g>
	<g>
		<path class="st0" d="M457.2,476.5c-118.5,5.3-213,103-213,222.8h213V476.5z"/>
		<rect x="477.3" y="476.3" class="st0" width="213" height="223.1"/>
		<path class="st0" d="M977.4,699.3h213c0-119.8-94.5-217.6-213-222.8L977.4,699.3L977.4,699.3z"/>
		<path class="st0" d="M957.3,476.5c-118.5,5.3-213,103-213,222.8h213V476.5z"/>
		<path class="st0" d="M1477.4,699.3h213c0-119.8-94.5-217.6-213-222.8V699.3z"/>
		<path class="st0" d="M1457.3,476.5c-118.5,5.3-213,103-213,222.8h213V476.5z"/>
		<path class="st0" d="M1977.5,699.3h213c0-119.8-94.5-217.6-213-222.8V699.3z"/>
		<path class="st0" d="M1957.4,476.5c-118.5,5.3-213,103-213,222.8h213V476.5z"/>
		<path class="st0" d="M2477.6,699.3h213c0-119.8-94.5-217.6-213-222.8V699.3z"/>
		<rect x="2244.4" y="476.3" class="st0" width="213" height="223.1"/>
		<path class="st0" d="M2977.6,699.3h213c0-119.8-94.5-217.6-213-222.8V699.3z"/>
		<path class="st0" d="M2957.6,476.5c-118.5,5.3-213,103-213,222.8h213V476.5z"/>
		<path class="st0" d="M3457.6,476.5c-118.5,5.3-213,103-213,222.8h213V476.5z"/>
		<path class="st0" d="M3477.7,699.3h213c0-119.8-94.5-217.6-213-222.8V699.3z"/>
	</g>
	<g>
		<path class="st0" d="M3924.7,476.5c-118.5,5.3-213,103-213,222.8h213V476.5z"/>
		<rect x="3944.8" y="476.3" class="st0" width="213" height="223.1"/>
		<path class="st0" d="M4444.9,699.3h213c0-119.8-94.5-217.6-213-222.8V699.3L4444.9,699.3z"/>
		<path class="st0" d="M4424.8,476.5c-118.5,5.3-213,103-213,222.8h213V476.5z"/>
		<path class="st0" d="M4944.9,699.3h213c0-119.8-94.5-217.6-213-222.8V699.3z"/>
		<path class="st0" d="M4924.9,476.5c-118.5,5.3-213,103-213,222.8h213V476.5z"/>
		<path class="st0" d="M5445,699.3h213c0-119.8-94.5-217.6-213-222.8V699.3z"/>
		<path class="st0" d="M5424.9,476.5c-118.5,5.3-213,103-213,222.8h213V476.5z"/>
		<path class="st0" d="M5945.1,699.3h213c0-119.8-94.5-217.6-213-222.8V699.3z"/>
		<rect x="5712" y="476.3" class="st0" width="213" height="223.1"/>
		<path class="st0" d="M6445.2,699.3h213c0-119.8-94.5-217.6-213-222.8V699.3z"/>
		<path class="st0" d="M6425.1,476.5c-118.5,5.3-213,103-213,222.8h213V476.5z"/>
		<path class="st0" d="M6925.1,476.5c-118.5,5.3-213,103-213,222.8h213V476.5z"/>
		<path class="st0" d="M6945.2,699.3h213c0-119.8-94.5-217.6-213-222.8V699.3z"/>
	</g>
</g>
<g>
	<g>
		<path class="st0" d="M-1533.6,719.4h-213c0,119.8,94.5,217.6,213,222.8V719.4z"/>
		<path class="st0" d="M-33.3,719.4h-213c0,119.8,94.5,217.6,213,222.8V719.4z"/>
		<path class="st0" d="M486.8,719.4v222.8c118.5-5.3,213-103,213-222.8H486.8z"/>
		<path class="st0" d="M466.7,719.4h-213c0,119.8,94.5,217.6,213,222.8V719.4z"/>
		<rect x="-746.4" y="719.4" class="st0" width="213" height="223.1"/>
		<path class="st0" d="M-513.3,719.4v222.8c118.5-5.3,213-103,213-222.8H-513.3z"/>
		<rect x="-1246.5" y="719.4" class="st0" width="213" height="223.1"/>
		<rect x="-1013.4" y="719.4" class="st0" width="213" height="223.1"/>
		<path class="st0" d="M-2033.6,719.4h-213c0,119.8,94.5,217.6,213,222.8V719.4z"/>
		<path class="st0" d="M-2013.5,719.4v222.8c118.5-5.3,213-103,213-222.8H-2013.5z"/>
		<rect x="-2513.6" y="719.4" class="st0" width="213" height="223.1"/>
		<path class="st0" d="M-2533.7,719.4h-213c0,119.8,94.5,217.6,213,222.8V719.4z"/>
	</g>
	<g>
		<path class="st0" d="M1934,719.4h-213c0,119.8,94.5,217.6,213,222.8V719.4z"/>
		<path class="st0" d="M3434.2,719.4h-213c0,119.8,94.5,217.6,213,222.8V719.4z"/>
		<path class="st0" d="M3954.3,719.4v222.8c118.5-5.3,213-103,213-222.8H3954.3z"/>
		<path class="st0" d="M3934.2,719.4h-213c0,119.8,94.5,217.6,213,222.8V719.4z"/>
		<rect x="2721.1" y="719.4" class="st0" width="213" height="223.1"/>
		<path class="st0" d="M2954.2,719.4v222.8c118.5-5.3,213-103,213-222.8H2954.2z"/>
		<rect x="2221" y="719.4" class="st0" width="213" height="223.1"/>
		<rect x="2454.1" y="719.4" class="st0" width="213" height="223.1"/>
		<path class="st0" d="M1433.9,719.4h-213c0,119.8,94.5,217.6,213,222.8V719.4z"/>
		<path class="st0" d="M1454,719.4v222.8c118.5-5.3,213-103,213-222.8H1454z"/>
		<rect x="953.9" y="719.4" class="st0" width="213" height="223.1"/>
		<path class="st0" d="M933.9,719.4h-213c0,119.8,94.5,217.6,213,222.8V719.4z"/>
	</g>
	<g>
		<path class="st0" d="M5401.5,719.4h-213c0,119.8,94.5,217.6,213,222.8V719.4z"/>
		<path class="st0" d="M6901.8,719.4h-213c0,119.8,94.5,217.6,213,222.8V719.4z"/>
		<path class="st0" d="M7421.9,719.4v222.8c118.5-5.3,213-103,213-222.8H7421.9z"/>
		<path class="st0" d="M7401.8,719.4h-213c0,119.8,94.5,217.6,213,222.8V719.4z"/>
		<rect x="6188.6" y="719.4" class="st0" width="213" height="223.1"/>
		<path class="st0" d="M6421.7,719.4v222.8c118.5-5.3,213-103,213-222.8H6421.7z"/>
		<rect x="5688.6" y="719.4" class="st0" width="213" height="223.1"/>
		<rect x="5921.7" y="719.4" class="st0" width="213" height="223.1"/>
		<path class="st0" d="M4901.5,719.4h-213c0,119.8,94.5,217.6,213,222.8V719.4z"/>
		<path class="st0" d="M4921.6,719.4v222.8c118.5-5.3,213-103,213-222.8H4921.6z"/>
		<rect x="4421.5" y="719.4" class="st0" width="213" height="223.1"/>
		<path class="st0" d="M4401.4,719.4h-213c0,119.8,94.5,217.6,213,222.8V719.4z"/>
	</g>
</g>
<g>
	<g>
		<path class="st0" d="M-2733.3,962.8c-118.5,5.3-213,103-213,222.8h213V962.8z"/>
		<rect x="-2713.2" y="962.5" class="st0" width="213" height="223.1"/>
		<path class="st0" d="M-2213.2,1185.6h213c0-119.8-94.5-217.6-213-222.8V1185.6L-2213.2,1185.6z"/>
		<path class="st0" d="M-2233.2,962.8c-118.5,5.3-213,103-213,222.8h213V962.8z"/>
		<path class="st0" d="M-1713.1,1185.6h213c0-119.8-94.5-217.6-213-222.8V1185.6z"/>
		<path class="st0" d="M-1733.2,962.8c-118.5,5.3-213,103-213,222.8h213V962.8z"/>
		<path class="st0" d="M-1213,1185.6h213c0-119.8-94.5-217.6-213-222.8V1185.6z"/>
		<path class="st0" d="M-1233.1,962.8c-118.5,5.3-213,103-213,222.8h213V962.8z"/>
		<path class="st0" d="M-713,1185.6h213c0-119.8-94.5-217.6-213-222.8V1185.6z"/>
		<rect x="-946.1" y="962.5" class="st0" width="213" height="223.1"/>
		<path class="st0" d="M-212.9,1185.6h213c0-119.8-94.5-217.6-213-222.8V1185.6z"/>
		<path class="st0" d="M-233,962.8c-118.5,5.3-213,103-213,222.8h213V962.8z"/>
		<path class="st0" d="M267.1,962.8c-118.5,5.3-213,103-213,222.8h213V962.8z"/>
		<path class="st0" d="M287.1,1185.6h213c0-119.8-94.5-217.6-213-222.8V1185.6z"/>
	</g>
	<g>
		<path class="st0" d="M734.2,962.8c-118.5,5.3-213,103-213,222.8h213V962.8z"/>
		<rect x="754.3" y="962.5" class="st0" width="213" height="223.1"/>
		<path class="st0" d="M1254.4,1185.6h213c0-119.8-94.5-217.6-213-222.8L1254.4,1185.6L1254.4,1185.6z"/>
		<path class="st0" d="M1234.3,962.8c-118.5,5.3-213,103-213,222.8h213V962.8z"/>
		<path class="st0" d="M1754.4,1185.6h213c0-119.8-94.5-217.6-213-222.8V1185.6z"/>
		<path class="st0" d="M1734.3,962.8c-118.5,5.3-213,103-213,222.8h213V962.8z"/>
		<path class="st0" d="M2254.5,1185.6h213c0-119.8-94.5-217.6-213-222.8V1185.6z"/>
		<path class="st0" d="M2234.4,962.8c-118.5,5.3-213,103-213,222.8h213V962.8z"/>
		<path class="st0" d="M2754.6,1185.6h213c0-119.8-94.5-217.6-213-222.8V1185.6z"/>
		<rect x="2521.5" y="962.5" class="st0" width="213" height="223.1"/>
		<path class="st0" d="M3254.6,1185.6h213c0-119.8-94.5-217.6-213-222.8V1185.6z"/>
		<path class="st0" d="M3234.6,962.8c-118.5,5.3-213,103-213,222.8h213V962.8z"/>
		<path class="st0" d="M3734.6,962.8c-118.5,5.3-213,103-213,222.8h213V962.8z"/>
		<path class="st0" d="M3754.7,1185.6h213c0-119.8-94.5-217.6-213-222.8V1185.6z"/>
	</g>
	<g>
		<path class="st0" d="M4201.8,962.8c-118.5,5.3-213,103-213,222.8h213V962.8z"/>
		<rect x="4221.8" y="962.5" class="st0" width="213" height="223.1"/>
		<path class="st0" d="M4721.9,1185.6h213c0-119.8-94.5-217.6-213-222.8V1185.6L4721.9,1185.6z"/>
		<path class="st0" d="M4701.8,962.8c-118.5,5.3-213,103-213,222.8h213V962.8z"/>
		<path class="st0" d="M5221.9,1185.6h213c0-119.8-94.5-217.6-213-222.8V1185.6z"/>
		<path class="st0" d="M5201.9,962.8c-118.5,5.3-213,103-213,222.8h213V962.8z"/>
		<path class="st0" d="M5722,1185.6h213c0-119.8-94.5-217.6-213-222.8V1185.6z"/>
		<path class="st0" d="M5701.9,962.8c-118.5,5.3-213,103-213,222.8h213V962.8z"/>
		<path class="st0" d="M6222.1,1185.6h213c0-119.8-94.5-217.6-213-222.8V1185.6z"/>
		<rect x="5989" y="962.5" class="st0" width="213" height="223.1"/>
		<path class="st0" d="M6722.2,1185.6h213c0-119.8-94.5-217.6-213-222.8V1185.6z"/>
		<path class="st0" d="M6702.1,962.8c-118.5,5.3-213,103-213,222.8h213V962.8z"/>
		<path class="st0" d="M7202.1,962.8c-118.5,5.3-213,103-213,222.8h213V962.8z"/>
		<path class="st0" d="M7222.2,1185.6h213c0-119.8-94.5-217.6-213-222.8V1185.6z"/>
	</g>
</g>
<g>
	<g>
		<path class="st0" d="M-1543.6,1205.7h-213c0,119.8,94.5,217.6,213,222.8V1205.7z"/>
		<path class="st0" d="M-43.4,1205.7h-213c0,119.8,94.5,217.6,213,222.8V1205.7z"/>
		<path class="st0" d="M476.7,1205.7v222.8c118.5-5.3,213-103,213-222.8H476.7z"/>
		<path class="st0" d="M456.7,1205.7h-213c0,119.8,94.5,217.6,213,222.8V1205.7z"/>
		<rect x="-756.5" y="1205.7" class="st0" width="213" height="223.1"/>
		<path class="st0" d="M-523.4,1205.7v222.8c118.5-5.3,213-103,213-222.8H-523.4z"/>
		<rect x="-1256.6" y="1205.7" class="st0" width="213" height="223.1"/>
		<rect x="-1023.4" y="1205.7" class="st0" width="213" height="223.1"/>
		<path class="st0" d="M-2043.6,1205.7h-213c0,119.8,94.5,217.6,213,222.8V1205.7z"/>
		<path class="st0" d="M-2023.6,1205.7v222.8c118.5-5.3,213-103,213-222.8H-2023.6z"/>
		<rect x="-2523.6" y="1205.7" class="st0" width="213" height="223.1"/>
		<path class="st0" d="M-2543.7,1205.7h-213c0,119.8,94.5,217.6,213,222.8V1205.7z"/>
	</g>
	<g>
		<path class="st0" d="M1923.9,1205.7h-213c0,119.8,94.5,217.6,213,222.8V1205.7z"/>
		<path class="st0" d="M3424.2,1205.7h-213c0,119.8,94.5,217.6,213,222.8V1205.7z"/>
		<path class="st0" d="M3944.3,1205.7v222.8c118.5-5.3,213-103,213-222.8H3944.3z"/>
		<path class="st0" d="M3924.2,1205.7h-213c0,119.8,94.5,217.6,213,222.8V1205.7z"/>
		<rect x="2711.1" y="1205.7" class="st0" width="213" height="223.1"/>
		<path class="st0" d="M2944.2,1205.7v222.8c118.5-5.3,213-103,213-222.8H2944.2z"/>
		<rect x="2211" y="1205.7" class="st0" width="213" height="223.1"/>
		<rect x="2444.1" y="1205.7" class="st0" width="213" height="223.1"/>
		<path class="st0" d="M1423.9,1205.7h-213c0,119.8,94.5,217.6,213,222.8V1205.7z"/>
		<path class="st0" d="M1444,1205.7v222.8c118.5-5.3,213-103,213-222.8H1444z"/>
		<rect x="943.9" y="1205.7" class="st0" width="213" height="223.1"/>
		<path class="st0" d="M923.8,1205.7h-213c0,119.8,94.5,217.6,213,222.8V1205.7z"/>
	</g>
	<g>
		<path class="st0" d="M5391.5,1205.7h-213c0,119.8,94.5,217.6,213,222.8V1205.7z"/>
		<path class="st0" d="M6891.7,1205.7h-213c0,119.8,94.5,217.6,213,222.8V1205.7z"/>
		<path class="st0" d="M7411.8,1205.7v222.8c118.5-5.3,213-103,213-222.8H7411.8z"/>
		<path class="st0" d="M7391.7,1205.7h-213c0,119.8,94.5,217.6,213,222.8V1205.7z"/>
		<rect x="6178.6" y="1205.7" class="st0" width="213" height="223.1"/>
		<path class="st0" d="M6411.7,1205.7v222.8c118.5-5.3,213-103,213-222.8H6411.7z"/>
		<rect x="5678.5" y="1205.7" class="st0" width="213" height="223.1"/>
		<rect x="5911.6" y="1205.7" class="st0" width="213" height="223.1"/>
		<path class="st0" d="M4891.4,1205.7h-213c0,119.8,94.5,217.6,213,222.8V1205.7z"/>
		<path class="st0" d="M4911.5,1205.7v222.8c118.5-5.3,213-103,213-222.8H4911.5z"/>
		<rect x="4411.4" y="1205.7" class="st0" width="213" height="223.1"/>
		<path class="st0" d="M4391.4,1205.7h-213c0,119.8,94.5,217.6,213,222.8V1205.7z"/>
	</g>
</g>
<g>
	<g>
		<path class="st0" d="M-2723.3,1449.1c-118.5,5.3-213,103-213,222.8h213V1449.1z"/>
		<rect x="-2703.2" y="1448.8" class="st0" width="213" height="223.1"/>
		<path class="st0" d="M-2203.1,1671.9h213c0-119.8-94.5-217.6-213-222.8V1671.9L-2203.1,1671.9z"/>
		<path class="st0" d="M-2223.2,1449.1c-118.5,5.3-213,103-213,222.8h213V1449.1z"/>
		<path class="st0" d="M-1703.1,1671.9h213c0-119.8-94.5-217.6-213-222.8V1671.9z"/>
		<path class="st0" d="M-1723.2,1449.1c-118.5,5.3-213,103-213,222.8h213V1449.1z"/>
		<path class="st0" d="M-1203,1671.9h213c0-119.8-94.5-217.6-213-222.8V1671.9z"/>
		<path class="st0" d="M-1223.1,1449.1c-118.5,5.3-213,103-213,222.8h213V1449.1z"/>
		<path class="st0" d="M-702.9,1671.9h213c0-119.8-94.5-217.6-213-222.8V1671.9z"/>
		<rect x="-936" y="1448.8" class="st0" width="213" height="223.1"/>
		<path class="st0" d="M-202.9,1671.9h213c0-119.8-94.5-217.6-213-222.8V1671.9z"/>
		<path class="st0" d="M-222.9,1449.1c-118.5,5.3-213,103-213,222.8h213V1449.1z"/>
		<path class="st0" d="M277.1,1449.1c-118.5,5.3-213,103-213,222.8h213V1449.1z"/>
		<path class="st0" d="M297.2,1671.9h213c0-119.8-94.5-217.6-213-222.8V1671.9z"/>
	</g>
	<g>
		<path class="st0" d="M744.3,1449.1c-118.5,5.3-213,103-213,222.8h213V1449.1z"/>
		<rect x="764.3" y="1448.8" class="st0" width="213" height="223.1"/>
		<path class="st0" d="M1264.4,1671.9h213c0-119.8-94.5-217.6-213-222.8L1264.4,1671.9L1264.4,1671.9z"/>
		<path class="st0" d="M1244.3,1449.1c-118.5,5.3-213,103-213,222.8h213V1449.1z"/>
		<path class="st0" d="M1764.4,1671.9h213c0-119.8-94.5-217.6-213-222.8V1671.9z"/>
		<path class="st0" d="M1744.4,1449.1c-118.5,5.3-213,103-213,222.8h213V1449.1z"/>
		<path class="st0" d="M2264.5,1671.9h213c0-119.8-94.5-217.6-213-222.8V1671.9z"/>
		<path class="st0" d="M2244.4,1449.1c-118.5,5.3-213,103-213,222.8h213V1449.1z"/>
		<path class="st0" d="M2764.6,1671.9h213c0-119.8-94.5-217.6-213-222.8V1671.9z"/>
		<rect x="2531.5" y="1448.8" class="st0" width="213" height="223.1"/>
		<path class="st0" d="M3264.7,1671.9h213c0-119.8-94.5-217.6-213-222.8V1671.9z"/>
		<path class="st0" d="M3244.6,1449.1c-118.5,5.3-213,103-213,222.8h213V1449.1z"/>
		<path class="st0" d="M3744.6,1449.1c-118.5,5.3-213,103-213,222.8h213V1449.1z"/>
		<path class="st0" d="M3764.7,1671.9h213c0-119.8-94.5-217.6-213-222.8V1671.9z"/>
	</g>
	<g>
		<path class="st0" d="M4211.8,1449.1c-118.5,5.3-213,103-213,222.8h213V1449.1z"/>
		<rect x="4231.9" y="1448.8" class="st0" width="213" height="223.1"/>
		<path class="st0" d="M4732,1671.9h213c0-119.8-94.5-217.6-213-222.8V1671.9L4732,1671.9z"/>
		<path class="st0" d="M4711.9,1449.1c-118.5,5.3-213,103-213,222.8h213V1449.1z"/>
		<path class="st0" d="M5232,1671.9h213c0-119.8-94.5-217.6-213-222.8V1671.9z"/>
		<path class="st0" d="M5211.9,1449.1c-118.5,5.3-213,103-213,222.8h213V1449.1z"/>
		<path class="st0" d="M5732.1,1671.9h213c0-119.8-94.5-217.6-213-222.8V1671.9z"/>
		<path class="st0" d="M5712,1449.1c-118.5,5.3-213,103-213,222.8h213V1449.1z"/>
		<path class="st0" d="M6232.1,1671.9h213c0-119.8-94.5-217.6-213-222.8V1671.9z"/>
		<rect x="5999" y="1448.8" class="st0" width="213" height="223.1"/>
		<path class="st0" d="M6732.2,1671.9h213c0-119.8-94.5-217.6-213-222.8V1671.9z"/>
		<path class="st0" d="M6712.1,1449.1c-118.5,5.3-213,103-213,222.8h213V1449.1z"/>
		<path class="st0" d="M7212.2,1449.1c-118.5,5.3-213,103-213,222.8h213V1449.1z"/>
		<path class="st0" d="M7232.3,1671.9h213c0-119.8-94.5-217.6-213-222.8V1671.9z"/>
	</g>
</g>
<g>
	<g>
		<path class="st0" d="M-1543.6,1692h-213c0,119.8,94.5,217.6,213,222.8V1692z"/>
		<path class="st0" d="M-43.4,1692h-213c0,119.8,94.5,217.6,213,222.8V1692z"/>
		<path class="st0" d="M476.7,1692v222.8c118.5-5.3,213-103,213-222.8H476.7z"/>
		<path class="st0" d="M456.7,1692h-213c0,119.8,94.5,217.6,213,222.8V1692z"/>
		<rect x="-756.5" y="1692" class="st0" width="213" height="223.1"/>
		<path class="st0" d="M-523.4,1692v222.8c118.5-5.3,213-103,213-222.8H-523.4z"/>
		<rect x="-1256.6" y="1692" class="st0" width="213" height="223.1"/>
		<rect x="-1023.4" y="1692" class="st0" width="213" height="223.1"/>
		<path class="st0" d="M-2043.6,1692h-213c0,119.8,94.5,217.6,213,222.8V1692z"/>
		<path class="st0" d="M-2023.6,1692v222.8c118.5-5.3,213-103,213-222.8H-2023.6z"/>
		<rect x="-2523.6" y="1692" class="st0" width="213" height="223.1"/>
		<path class="st0" d="M-2543.7,1692h-213c0,119.8,94.5,217.6,213,222.8V1692z"/>
	</g>
	<g>
		<path class="st0" d="M1923.9,1692h-213c0,119.8,94.5,217.6,213,222.8V1692z"/>
		<path class="st0" d="M3424.2,1692h-213c0,119.8,94.5,217.6,213,222.8V1692z"/>
		<path class="st0" d="M3944.3,1692v222.8c118.5-5.3,213-103,213-222.8H3944.3z"/>
		<path class="st0" d="M3924.2,1692h-213c0,119.8,94.5,217.6,213,222.8V1692z"/>
		<rect x="2711.1" y="1692" class="st0" width="213" height="223.1"/>
		<path class="st0" d="M2944.2,1692v222.8c118.5-5.3,213-103,213-222.8H2944.2z"/>
		<rect x="2211" y="1692" class="st0" width="213" height="223.1"/>
		<rect x="2444.1" y="1692" class="st0" width="213" height="223.1"/>
		<path class="st0" d="M1423.9,1692h-213c0,119.8,94.5,217.6,213,222.8V1692z"/>
		<path class="st0" d="M1444,1692v222.8c118.5-5.3,213-103,213-222.8H1444z"/>
		<rect x="943.9" y="1692" class="st0" width="213" height="223.1"/>
		<path class="st0" d="M923.8,1692h-213c0,119.8,94.5,217.6,213,222.8V1692z"/>
	</g>
	<g>
		<path class="st0" d="M5391.5,1692h-213c0,119.8,94.5,217.6,213,222.8V1692z"/>
		<path class="st0" d="M6891.7,1692h-213c0,119.8,94.5,217.6,213,222.8V1692z"/>
		<path class="st0" d="M7411.8,1692v222.8c118.5-5.3,213-103,213-222.8H7411.8z"/>
		<path class="st0" d="M7391.7,1692h-213c0,119.8,94.5,217.6,213,222.8V1692z"/>
		<rect x="6178.6" y="1692" class="st0" width="213" height="223.1"/>
		<path class="st0" d="M6411.7,1692v222.8c118.5-5.3,213-103,213-222.8H6411.7z"/>
		<rect x="5678.5" y="1692" class="st0" width="213" height="223.1"/>
		<rect x="5911.6" y="1692" class="st0" width="213" height="223.1"/>
		<path class="st0" d="M4891.4,1692h-213c0,119.8,94.5,217.6,213,222.8V1692z"/>
		<path class="st0" d="M4911.5,1692v222.8c118.5-5.3,213-103,213-222.8H4911.5z"/>
		<rect x="4411.4" y="1692" class="st0" width="213" height="223.1"/>
		<path class="st0" d="M4391.4,1692h-213c0,119.8,94.5,217.6,213,222.8V1692z"/>
	</g>
</g>
<g>
	<g>
		<path class="st0" d="M-2787.3,1935.4c-118.5,5.3-213,103-213,222.8h213V1935.4z"/>
		<rect x="-2767.2" y="1935.1" class="st0" width="213" height="223.1"/>
		<path class="st0" d="M-2267.1,2158.2h213c0-119.8-94.5-217.6-213-222.8V2158.2L-2267.1,2158.2z"/>
		<path class="st0" d="M-2287.2,1935.4c-118.5,5.3-213,103-213,222.8h213V1935.4z"/>
		<path class="st0" d="M-1767.1,2158.2h213c0-119.8-94.5-217.6-213-222.8V2158.2z"/>
		<path class="st0" d="M-1787.1,1935.4c-118.5,5.3-213,103-213,222.8h213V1935.4z"/>
		<path class="st0" d="M-1267,2158.2h213c0-119.8-94.5-217.6-213-222.8V2158.2z"/>
		<path class="st0" d="M-1287.1,1935.4c-118.5,5.3-213,103-213,222.8h213V1935.4z"/>
		<path class="st0" d="M-766.9,2158.2h213c0-119.8-94.5-217.6-213-222.8V2158.2z"/>
		<rect x="-1000" y="1935.1" class="st0" width="213" height="223.1"/>
		<path class="st0" d="M-266.8,2158.2h213c0-119.8-94.5-217.6-213-222.8V2158.2z"/>
		<path class="st0" d="M-286.9,1935.4c-118.5,5.3-213,103-213,222.8h213V1935.4z"/>
		<path class="st0" d="M213.1,1935.4c-118.5,5.3-213,103-213,222.8h213V1935.4z"/>
		<path class="st0" d="M233.2,2158.2h213c0-119.8-94.5-217.6-213-222.8V2158.2z"/>
	</g>
	<g>
		<path class="st0" d="M680.3,1935.4c-118.5,5.3-213,103-213,222.8h213V1935.4z"/>
		<rect x="700.4" y="1935.1" class="st0" width="213" height="223.1"/>
		<path class="st0" d="M1200.4,2158.2h213c0-119.8-94.5-217.6-213-222.8V2158.2L1200.4,2158.2z"/>
		<path class="st0" d="M1180.4,1935.4c-118.5,5.3-213,103-213,222.8h213V1935.4z"/>
		<path class="st0" d="M1700.5,2158.2h213c0-119.8-94.5-217.6-213-222.8V2158.2z"/>
		<path class="st0" d="M1680.4,1935.4c-118.5,5.3-213,103-213,222.8h213V1935.4z"/>
		<path class="st0" d="M2200.5,2158.2h213c0-119.8-94.5-217.6-213-222.8V2158.2z"/>
		<path class="st0" d="M2180.5,1935.4c-118.5,5.3-213,103-213,222.8h213V1935.4z"/>
		<path class="st0" d="M2700.6,2158.2h213c0-119.8-94.5-217.6-213-222.8V2158.2z"/>
		<rect x="2467.5" y="1935.1" class="st0" width="213" height="223.1"/>
		<path class="st0" d="M3200.7,2158.2h213c0-119.8-94.5-217.6-213-222.8V2158.2z"/>
		<path class="st0" d="M3180.6,1935.4c-118.5,5.3-213,103-213,222.8h213V1935.4z"/>
		<path class="st0" d="M3680.7,1935.4c-118.5,5.3-213,103-213,222.8h213V1935.4z"/>
		<path class="st0" d="M3700.7,2158.2h213c0-119.8-94.5-217.6-213-222.8V2158.2z"/>
	</g>
	<g>
		<path class="st0" d="M4147.8,1935.4c-118.5,5.3-213,103-213,222.8h213V1935.4z"/>
		<rect x="4167.9" y="1935.1" class="st0" width="213" height="223.1"/>
		<path class="st0" d="M4668,2158.2h213c0-119.8-94.5-217.6-213-222.8V2158.2L4668,2158.2z"/>
		<path class="st0" d="M4647.9,1935.4c-118.5,5.3-213,103-213,222.8h213V1935.4z"/>
		<path class="st0" d="M5168,2158.2h213c0-119.8-94.5-217.6-213-222.8V2158.2z"/>
		<path class="st0" d="M5147.9,1935.4c-118.5,5.3-213,103-213,222.8h213V1935.4z"/>
		<path class="st0" d="M5668.1,2158.2h213c0-119.8-94.5-217.6-213-222.8V2158.2z"/>
		<path class="st0" d="M5648,1935.4c-118.5,5.3-213,103-213,222.8h213V1935.4z"/>
		<path class="st0" d="M6168.2,2158.2h213c0-119.8-94.5-217.6-213-222.8V2158.2z"/>
		<rect x="5935.1" y="1935.1" class="st0" width="213" height="223.1"/>
		<path class="st0" d="M6668.2,2158.2h213c0-119.8-94.5-217.6-213-222.8V2158.2z"/>
		<path class="st0" d="M6648.2,1935.4c-118.5,5.3-213,103-213,222.8h213V1935.4z"/>
		<path class="st0" d="M7148.2,1935.4c-118.5,5.3-213,103-213,222.8h213V1935.4z"/>
		<path class="st0" d="M7168.3,2158.2h213c0-119.8-94.5-217.6-213-222.8V2158.2z"/>
	</g>
</g>
<g>
	<g>
		<path class="st0" d="M-1637.8,2178.3h-213c0,119.8,94.5,217.6,213,222.8V2178.3z"/>
		<path class="st0" d="M-137.5,2178.3h-213c0,119.8,94.5,217.6,213,222.8V2178.3z"/>
		<path class="st0" d="M382.6,2178.3v222.8c118.5-5.3,213-103,213-222.8H382.6z"/>
		<path class="st0" d="M362.5,2178.3h-213c0,119.8,94.5,217.6,213,222.8V2178.3z"/>
		<rect x="-850.6" y="2178.3" class="st0" width="213" height="223.1"/>
		<path class="st0" d="M-617.5,2178.3v222.8c118.5-5.3,213-103,213-222.8H-617.5z"/>
		<rect x="-1350.7" y="2178.3" class="st0" width="213" height="223.1"/>
		<rect x="-1117.6" y="2178.3" class="st0" width="213" height="223.1"/>
		<path class="st0" d="M-2137.8,2178.3h-213c0,119.8,94.5,217.6,213,222.8V2178.3z"/>
		<path class="st0" d="M-2117.7,2178.3v222.8c118.5-5.3,213-103,213-222.8H-2117.7z"/>
		<rect x="-2617.8" y="2178.3" class="st0" width="213" height="223.1"/>
		<path class="st0" d="M-2637.9,2178.3h-213c0,119.8,94.5,217.6,213,222.8V2178.3z"/>
	</g>
	<g>
		<path class="st0" d="M1829.8,2178.3h-213c0,119.8,94.5,217.6,213,222.8V2178.3z"/>
		<path class="st0" d="M3330,2178.3h-213c0,119.8,94.5,217.6,213,222.8V2178.3z"/>
		<path class="st0" d="M3850.1,2178.3v222.8c118.5-5.3,213-103,213-222.8H3850.1z"/>
		<path class="st0" d="M3830,2178.3h-213c0,119.8,94.5,217.6,213,222.8V2178.3z"/>
		<rect x="2616.9" y="2178.3" class="st0" width="213" height="223.1"/>
		<path class="st0" d="M2850,2178.3v222.8c118.5-5.3,213-103,213-222.8H2850z"/>
		<rect x="2116.8" y="2178.3" class="st0" width="213" height="223.1"/>
		<rect x="2349.9" y="2178.3" class="st0" width="213" height="223.1"/>
		<path class="st0" d="M1329.7,2178.3h-213c0,119.8,94.5,217.6,213,222.8V2178.3z"/>
		<path class="st0" d="M1349.8,2178.3v222.8c118.5-5.3,213-103,213-222.8H1349.8z"/>
		<rect x="849.7" y="2178.3" class="st0" width="213" height="223.1"/>
		<path class="st0" d="M829.7,2178.3h-213c0,119.8,94.5,217.6,213,222.8V2178.3z"/>
	</g>
	<g>
		<path class="st0" d="M5297.3,2178.3h-213c0,119.8,94.5,217.6,213,222.8V2178.3z"/>
		<path class="st0" d="M6797.6,2178.3h-213c0,119.8,94.5,217.6,213,222.8V2178.3z"/>
		<path class="st0" d="M7317.7,2178.3v222.8c118.5-5.3,213-103,213-222.8H7317.7z"/>
		<path class="st0" d="M7297.6,2178.3h-213c0,119.8,94.5,217.6,213,222.8V2178.3z"/>
		<rect x="6084.4" y="2178.3" class="st0" width="213" height="223.1"/>
		<path class="st0" d="M6317.5,2178.3v222.8c118.5-5.3,213-103,213-222.8H6317.5z"/>
		<rect x="5584.4" y="2178.3" class="st0" width="213" height="223.1"/>
		<rect x="5817.5" y="2178.3" class="st0" width="213" height="223.1"/>
		<path class="st0" d="M4797.3,2178.3h-213c0,119.8,94.5,217.6,213,222.8V2178.3z"/>
		<path class="st0" d="M4817.4,2178.3v222.8c118.5-5.3,213-103,213-222.8H4817.4z"/>
		<rect x="4317.3" y="2178.3" class="st0" width="213" height="223.1"/>
		<path class="st0" d="M4297.2,2178.3h-213c0,119.8,94.5,217.6,213,222.8V2178.3z"/>
	</g>
</g>
<g>
	<g>
		<path class="st0" d="M-2543.7,2421.6c-118.5,5.3-213,103-213,222.8h213V2421.6z"/>
		<rect x="-2523.6" y="2421.4" class="st0" width="213" height="223.1"/>
		<path class="st0" d="M-2023.6,2644.5h213c0-119.8-94.5-217.6-213-222.8L-2023.6,2644.5L-2023.6,2644.5z"/>
		<path class="st0" d="M-2043.6,2421.6c-118.5,5.3-213,103-213,222.8h213V2421.6z"/>
		<path class="st0" d="M-1523.5,2644.5h213c0-119.8-94.5-217.6-213-222.8V2644.5z"/>
		<path class="st0" d="M-1543.6,2421.6c-118.5,5.3-213,103-213,222.8h213V2421.6z"/>
		<path class="st0" d="M-1023.4,2644.5h213c0-119.8-94.5-217.6-213-222.8V2644.5z"/>
		<path class="st0" d="M-1043.5,2421.6c-118.5,5.3-213,103-213,222.8h213V2421.6z"/>
		<path class="st0" d="M-523.4,2644.5h213c0-119.8-94.5-217.6-213-222.8V2644.5z"/>
		<rect x="-756.5" y="2421.4" class="st0" width="213" height="223.1"/>
		<path class="st0" d="M-23.3,2644.5h213c0-119.8-94.5-217.6-213-222.8V2644.5z"/>
		<path class="st0" d="M-43.4,2421.6c-118.5,5.3-213,103-213,222.8h213V2421.6z"/>
		<path class="st0" d="M456.7,2421.6c-118.5,5.3-213,103-213,222.8h213V2421.6z"/>
		<path class="st0" d="M476.7,2644.5h213c0-119.8-94.5-217.6-213-222.8V2644.5z"/>
	</g>
	<g>
		<path class="st0" d="M923.8,2421.6c-118.5,5.3-213,103-213,222.8h213V2421.6z"/>
		<rect x="943.9" y="2421.4" class="st0" width="213" height="223.1"/>
		<path class="st0" d="M1444,2644.5h213c0-119.8-94.5-217.6-213-222.8V2644.5L1444,2644.5z"/>
		<path class="st0" d="M1423.9,2421.6c-118.5,5.3-213,103-213,222.8h213V2421.6z"/>
		<path class="st0" d="M1944,2644.5h213c0-119.8-94.5-217.6-213-222.8V2644.5z"/>
		<path class="st0" d="M1923.9,2421.6c-118.5,5.3-213,103-213,222.8h213V2421.6z"/>
		<path class="st0" d="M2444.1,2644.5h213c0-119.8-94.5-217.6-213-222.8V2644.5z"/>
		<path class="st0" d="M2424,2421.6c-118.5,5.3-213,103-213,222.8h213V2421.6z"/>
		<path class="st0" d="M2944.2,2644.5h213c0-119.8-94.5-217.6-213-222.8V2644.5z"/>
		<rect x="2711.1" y="2421.4" class="st0" width="213" height="223.1"/>
		<path class="st0" d="M3444.3,2644.5h213c0-119.8-94.5-217.6-213-222.8V2644.5z"/>
		<path class="st0" d="M3424.2,2421.6c-118.5,5.3-213,103-213,222.8h213V2421.6z"/>
		<path class="st0" d="M3924.2,2421.6c-118.5,5.3-213,103-213,222.8h213V2421.6z"/>
		<path class="st0" d="M3944.3,2644.5h213c0-119.8-94.5-217.6-213-222.8V2644.5z"/>
	</g>
	<g>
		<path class="st0" d="M4391.4,2421.6c-118.5,5.3-213,103-213,222.8h213V2421.6z"/>
		<rect x="4411.4" y="2421.4" class="st0" width="213" height="223.1"/>
		<path class="st0" d="M4911.5,2644.5h213c0-119.8-94.5-217.6-213-222.8V2644.5L4911.5,2644.5z"/>
		<path class="st0" d="M4891.4,2421.6c-118.5,5.3-213,103-213,222.8h213V2421.6z"/>
		<path class="st0" d="M5411.6,2644.5h213c0-119.8-94.5-217.6-213-222.8V2644.5z"/>
		<path class="st0" d="M5391.5,2421.6c-118.5,5.3-213,103-213,222.8h213V2421.6z"/>
		<path class="st0" d="M5911.6,2644.5h213c0-119.8-94.5-217.6-213-222.8V2644.5z"/>
		<path class="st0" d="M5891.6,2421.6c-118.5,5.3-213,103-213,222.8h213V2421.6z"/>
		<path class="st0" d="M6411.7,2644.5h213c0-119.8-94.5-217.6-213-222.8V2644.5z"/>
		<rect x="6178.6" y="2421.4" class="st0" width="213" height="223.1"/>
		<path class="st0" d="M6911.8,2644.5h213c0-119.8-94.5-217.6-213-222.8V2644.5z"/>
		<path class="st0" d="M6891.7,2421.6c-118.5,5.3-213,103-213,222.8h213V2421.6z"/>
		<path class="st0" d="M7391.7,2421.6c-118.5,5.3-213,103-213,222.8h213V2421.6z"/>
		<path class="st0" d="M7411.8,2644.5h213c0-119.8-94.5-217.6-213-222.8V2644.5z"/>
	</g>
</g>
<g>
	<g>
		<path class="st0" d="M-1680.6,2664.6h-213c0,119.8,94.5,217.6,213,222.8V2664.6z"/>
		<path class="st0" d="M-180.4,2664.6h-213c0,119.8,94.5,217.6,213,222.8V2664.6z"/>
		<path class="st0" d="M339.7,2664.6v222.8c118.5-5.3,213-103,213-222.8H339.7z"/>
		<path class="st0" d="M319.6,2664.6h-213c0,119.8,94.5,217.6,213,222.8V2664.6z"/>
		<rect x="-893.5" y="2664.6" class="st0" width="213" height="223.1"/>
		<path class="st0" d="M-660.4,2664.6v222.8c118.5-5.3,213-103,213-222.8H-660.4z"/>
		<rect x="-1393.6" y="2664.6" class="st0" width="213" height="223.1"/>
		<rect x="-1160.5" y="2664.6" class="st0" width="213" height="223.1"/>
		<path class="st0" d="M-2180.7,2664.6h-213c0,119.8,94.5,217.6,213,222.8V2664.6z"/>
		<path class="st0" d="M-2160.6,2664.6v222.8c118.5-5.3,213-103,213-222.8H-2160.6z"/>
		<rect x="-2660.7" y="2664.6" class="st0" width="213" height="223.1"/>
		<path class="st0" d="M-2680.7,2664.6h-213c0,119.8,94.5,217.6,213,222.8V2664.6z"/>
	</g>
	<g>
		<path class="st0" d="M1786.9,2664.6h-213c0,119.8,94.5,217.6,213,222.8V2664.6z"/>
		<path class="st0" d="M3287.1,2664.6h-213c0,119.8,94.5,217.6,213,222.8V2664.6z"/>
		<path class="st0" d="M3807.3,2664.6v222.8c118.5-5.3,213-103,213-222.8H3807.3z"/>
		<path class="st0" d="M3787.2,2664.6h-213c0,119.8,94.5,217.6,213,222.8V2664.6z"/>
		<rect x="2574" y="2664.6" class="st0" width="213" height="223.1"/>
		<path class="st0" d="M2807.1,2664.6v222.8c118.5-5.3,213-103,213-222.8H2807.1z"/>
		<rect x="2074" y="2664.6" class="st0" width="213" height="223.1"/>
		<rect x="2307.1" y="2664.6" class="st0" width="213" height="223.1"/>
		<path class="st0" d="M1286.9,2664.6h-213c0,119.8,94.5,217.6,213,222.8V2664.6z"/>
		<path class="st0" d="M1307,2664.6v222.8c118.5-5.3,213-103,213-222.8H1307z"/>
		<rect x="806.9" y="2664.6" class="st0" width="213" height="223.1"/>
		<path class="st0" d="M786.8,2664.6h-213c0,119.8,94.5,217.6,213,222.8V2664.6z"/>
	</g>
	<g>
		<path class="st0" d="M5254.4,2664.6h-213c0,119.8,94.5,217.6,213,222.8V2664.6z"/>
		<path class="st0" d="M6754.7,2664.6h-213c0,119.8,94.5,217.6,213,222.8V2664.6z"/>
		<path class="st0" d="M7274.8,2664.6v222.8c118.5-5.3,213-103,213-222.8H7274.8z"/>
		<path class="st0" d="M7254.7,2664.6h-213c0,119.8,94.5,217.6,213,222.8V2664.6z"/>
		<rect x="6041.6" y="2664.6" class="st0" width="213" height="223.1"/>
		<path class="st0" d="M6274.7,2664.6v222.8c118.5-5.3,213-103,213-222.8H6274.7z"/>
		<rect x="5541.5" y="2664.6" class="st0" width="213" height="223.1"/>
		<rect x="5774.6" y="2664.6" class="st0" width="213" height="223.1"/>
		<path class="st0" d="M4754.4,2664.6h-213c0,119.8,94.5,217.6,213,222.8V2664.6z"/>
		<path class="st0" d="M4774.5,2664.6v222.8c118.5-5.3,213-103,213-222.8H4774.5z"/>
		<rect x="4274.4" y="2664.6" class="st0" width="213" height="223.1"/>
		<path class="st0" d="M4254.3,2664.6h-213c0,119.8,94.5,217.6,213,222.8V2664.6z"/>
	</g>
</g>
<g>
	<g>
		<path class="st0" d="M-2743.4,2907.9c-118.5,5.3-213,103-213,222.8h213V2907.9z"/>
		<rect x="-2723.3" y="2907.7" class="st0" width="213" height="223.1"/>
		<path class="st0" d="M-2223.2,3130.8h213c0-119.8-94.5-217.6-213-222.8V3130.8L-2223.2,3130.8z"/>
		<path class="st0" d="M-2243.3,2907.9c-118.5,5.3-213,103-213,222.8h213V2907.9z"/>
		<path class="st0" d="M-1723.2,3130.8h213c0-119.8-94.5-217.6-213-222.8V3130.8z"/>
		<path class="st0" d="M-1743.2,2907.9c-118.5,5.3-213,103-213,222.8h213V2907.9z"/>
		<path class="st0" d="M-1223.1,3130.8h213c0-119.8-94.5-217.6-213-222.8V3130.8z"/>
		<path class="st0" d="M-1243.2,2907.9c-118.5,5.3-213,103-213,222.8h213V2907.9z"/>
		<path class="st0" d="M-723,3130.8h213c0-119.8-94.5-217.6-213-222.8V3130.8z"/>
		<rect x="-956.1" y="2907.7" class="st0" width="213" height="223.1"/>
		<path class="st0" d="M-222.9,3130.8h213c0-119.8-94.5-217.6-213-222.8V3130.8z"/>
		<path class="st0" d="M-243,2907.9c-118.5,5.3-213,103-213,222.8h213V2907.9z"/>
		<path class="st0" d="M257,2907.9c-118.5,5.3-213,103-213,222.8h213V2907.9z"/>
		<path class="st0" d="M277.1,3130.8h213c0-119.8-94.5-217.6-213-222.8V3130.8z"/>
	</g>
	<g>
		<path class="st0" d="M724.2,2907.9c-118.5,5.3-213,103-213,222.8h213V2907.9z"/>
		<rect x="744.3" y="2907.7" class="st0" width="213" height="223.1"/>
		<path class="st0" d="M1244.3,3130.8h213c0-119.8-94.5-217.6-213-222.8V3130.8L1244.3,3130.8z"/>
		<path class="st0" d="M1224.3,2907.9c-118.5,5.3-213,103-213,222.8h213V2907.9z"/>
		<path class="st0" d="M1744.4,3130.8h213c0-119.8-94.5-217.6-213-222.8V3130.8z"/>
		<path class="st0" d="M1724.3,2907.9c-118.5,5.3-213,103-213,222.8h213V2907.9z"/>
		<path class="st0" d="M2244.4,3130.8h213c0-119.8-94.5-217.6-213-222.8V3130.8z"/>
		<path class="st0" d="M2224.4,2907.9c-118.5,5.3-213,103-213,222.8h213V2907.9z"/>
		<path class="st0" d="M2744.5,3130.8h213c0-119.8-94.5-217.6-213-222.8V3130.8z"/>
		<rect x="2511.4" y="2907.7" class="st0" width="213" height="223.1"/>
		<path class="st0" d="M3244.6,3130.8h213c0-119.8-94.5-217.6-213-222.8V3130.8z"/>
		<path class="st0" d="M3224.5,2907.9c-118.5,5.3-213,103-213,222.8h213V2907.9z"/>
		<path class="st0" d="M3724.6,2907.9c-118.5,5.3-213,103-213,222.8h213V2907.9z"/>
		<path class="st0" d="M3744.6,3130.8h213c0-119.8-94.5-217.6-213-222.8V3130.8z"/>
	</g>
	<g>
		<path class="st0" d="M4191.7,2907.9c-118.5,5.3-213,103-213,222.8h213V2907.9z"/>
		<rect x="4211.8" y="2907.7" class="st0" width="213" height="223.1"/>
		<path class="st0" d="M4711.9,3130.8h213c0-119.8-94.5-217.6-213-222.8V3130.8L4711.9,3130.8z"/>
		<path class="st0" d="M4691.8,2907.9c-118.5,5.3-213,103-213,222.8h213V2907.9z"/>
		<path class="st0" d="M5211.9,3130.8h213c0-119.8-94.5-217.6-213-222.8V3130.8z"/>
		<path class="st0" d="M5191.8,2907.9c-118.5,5.3-213,103-213,222.8h213V2907.9z"/>
		<path class="st0" d="M5712,3130.8h213c0-119.8-94.5-217.6-213-222.8V3130.8z"/>
		<path class="st0" d="M5691.9,2907.9c-118.5,5.3-213,103-213,222.8h213V2907.9z"/>
		<path class="st0" d="M6212.1,3130.8h213c0-119.8-94.5-217.6-213-222.8V3130.8z"/>
		<rect x="5979" y="2907.7" class="st0" width="213" height="223.1"/>
		<path class="st0" d="M6712.1,3130.8h213c0-119.8-94.5-217.6-213-222.8V3130.8z"/>
		<path class="st0" d="M6692.1,2907.9c-118.5,5.3-213,103-213,222.8h213V2907.9z"/>
		<path class="st0" d="M7192.1,2907.9c-118.5,5.3-213,103-213,222.8h213V2907.9z"/>
		<path class="st0" d="M7212.2,3130.8h213c0-119.8-94.5-217.6-213-222.8V3130.8z"/>
	</g>
</g>
<g>
	<g>
		<path class="st0" d="M-1349.7,3150.9h-213c0,119.8,94.5,217.6,213,222.8V3150.9z"/>
		<path class="st0" d="M150.6,3150.9h-213c0,119.8,94.5,217.6,213,222.8V3150.9z"/>
		<path class="st0" d="M670.7,3150.9v222.8c118.5-5.3,213-103,213-222.8H670.7z"/>
		<path class="st0" d="M650.6,3150.9h-213c0,119.8,94.5,217.6,213,222.8V3150.9z"/>
		<rect x="-562.6" y="3150.9" class="st0" width="213" height="223.1"/>
		<path class="st0" d="M-329.4,3150.9v222.8c118.5-5.3,213-103,213-222.8H-329.4z"/>
		<rect x="-1062.6" y="3150.9" class="st0" width="213" height="223.1"/>
		<rect x="-829.5" y="3150.9" class="st0" width="213" height="223.1"/>
		<path class="st0" d="M-1849.7,3150.9h-213c0,119.8,94.5,217.6,213,222.8V3150.9z"/>
		<path class="st0" d="M-1829.6,3150.9v222.8c118.5-5.3,213-103,213-222.8H-1829.6z"/>
		<rect x="-2329.7" y="3150.9" class="st0" width="213" height="223.1"/>
		<path class="st0" d="M-2349.8,3150.9h-213c0,119.8,94.5,217.6,213,222.8V3150.9z"/>
	</g>
	<g>
		<path class="st0" d="M2117.9,3150.9h-213c0,119.8,94.5,217.6,213,222.8V3150.9z"/>
		<path class="st0" d="M3618.1,3150.9h-213c0,119.8,94.5,217.6,213,222.8V3150.9z"/>
		<path class="st0" d="M4138.2,3150.9v222.8c118.5-5.3,213-103,213-222.8H4138.2z"/>
		<path class="st0" d="M4118.1,3150.9h-213c0,119.8,94.5,217.6,213,222.8V3150.9z"/>
		<rect x="2905" y="3150.9" class="st0" width="213" height="223.1"/>
		<path class="st0" d="M3138.1,3150.9v222.8c118.5-5.3,213-103,213-222.8H3138.1z"/>
		<rect x="2404.9" y="3150.9" class="st0" width="213" height="223.1"/>
		<rect x="2638" y="3150.9" class="st0" width="213" height="223.1"/>
		<path class="st0" d="M1617.8,3150.9h-213c0,119.8,94.5,217.6,213,222.8V3150.9z"/>
		<path class="st0" d="M1637.9,3150.9v222.8c118.5-5.3,213-103,213-222.8H1637.9z"/>
		<rect x="1137.8" y="3150.9" class="st0" width="213" height="223.1"/>
		<path class="st0" d="M1117.7,3150.9h-213c0,119.8,94.5,217.6,213,222.8V3150.9z"/>
	</g>
	<g>
		<path class="st0" d="M5585.4,3150.9h-213c0,119.8,94.5,217.6,213,222.8V3150.9z"/>
		<path class="st0" d="M7085.6,3150.9h-213c0,119.8,94.5,217.6,213,222.8V3150.9z"/>
		<path class="st0" d="M7605.7,3150.9v222.8c118.5-5.3,213-103,213-222.8H7605.7z"/>
		<path class="st0" d="M7585.7,3150.9h-213c0,119.8,94.5,217.6,213,222.8V3150.9z"/>
		<rect x="6372.5" y="3150.9" class="st0" width="213" height="223.1"/>
		<path class="st0" d="M6605.6,3150.9v222.8c118.5-5.3,213-103,213-222.8H6605.6z"/>
		<rect x="5872.4" y="3150.9" class="st0" width="213" height="223.1"/>
		<rect x="6105.5" y="3150.9" class="st0" width="213" height="223.1"/>
		<path class="st0" d="M5085.4,3150.9h-213c0,119.8,94.5,217.6,213,222.8V3150.9z"/>
		<path class="st0" d="M5105.4,3150.9v222.8c118.5-5.3,213-103,213-222.8H5105.4z"/>
		<rect x="4605.4" y="3150.9" class="st0" width="213" height="223.1"/>
		<path class="st0" d="M4585.3,3150.9h-213c0,119.8,94.5,217.6,213,222.8V3150.9z"/>
	</g>
</g>
<g>
	<g>
		<path class="st0" d="M-2820.7,3394.2c-118.5,5.3-213,103-213,222.8h213V3394.2z"/>
		<rect x="-2800.6" y="3394" class="st0" width="213" height="223.1"/>
		<path class="st0" d="M-2300.6,3617.1h213c0-119.8-94.5-217.6-213-222.8L-2300.6,3617.1L-2300.6,3617.1z"/>
		<path class="st0" d="M-2320.6,3394.2c-118.5,5.3-213,103-213,222.8h213V3394.2z"/>
		<path class="st0" d="M-1800.5,3617.1h213c0-119.8-94.5-217.6-213-222.8V3617.1z"/>
		<path class="st0" d="M-1820.6,3394.2c-118.5,5.3-213,103-213,222.8h213V3394.2z"/>
		<path class="st0" d="M-1300.5,3617.1h213c0-119.8-94.5-217.6-213-222.8V3617.1z"/>
		<path class="st0" d="M-1320.5,3394.2c-118.5,5.3-213,103-213,222.8h213V3394.2z"/>
		<path class="st0" d="M-800.4,3617.1h213c0-119.8-94.5-217.6-213-222.8V3617.1z"/>
		<rect x="-1033.5" y="3394" class="st0" width="213" height="223.1"/>
		<path class="st0" d="M-300.3,3617.1h213c0-119.8-94.5-217.6-213-222.8V3617.1z"/>
		<path class="st0" d="M-320.4,3394.2c-118.5,5.3-213,103-213,222.8h213V3394.2z"/>
		<path class="st0" d="M179.7,3394.2c-118.5,5.3-213,103-213,222.8h213V3394.2z"/>
		<path class="st0" d="M199.7,3617.1h213c0-119.8-94.5-217.6-213-222.8V3617.1z"/>
	</g>
	<g>
		<path class="st0" d="M646.8,3394.2c-118.5,5.3-213,103-213,222.8h213V3394.2z"/>
		<rect x="666.9" y="3394" class="st0" width="213" height="223.1"/>
		<path class="st0" d="M1167,3617.1h213c0-119.8-94.5-217.6-213-222.8V3617.1L1167,3617.1z"/>
		<path class="st0" d="M1146.9,3394.2c-118.5,5.3-213,103-213,222.8h213V3394.2z"/>
		<path class="st0" d="M1667,3617.1h213c0-119.8-94.5-217.6-213-222.8V3617.1z"/>
		<path class="st0" d="M1646.9,3394.2c-118.5,5.3-213,103-213,222.8h213V3394.2z"/>
		<path class="st0" d="M2167.1,3617.1h213c0-119.8-94.5-217.6-213-222.8V3617.1z"/>
		<path class="st0" d="M2147,3394.2c-118.5,5.3-213,103-213,222.8h213V3394.2z"/>
		<path class="st0" d="M2667.2,3617.1h213c0-119.8-94.5-217.6-213-222.8V3617.1z"/>
		<rect x="2434.1" y="3394" class="st0" width="213" height="223.1"/>
		<path class="st0" d="M3167.2,3617.1h213c0-119.8-94.5-217.6-213-222.8V3617.1z"/>
		<path class="st0" d="M3147.2,3394.2c-118.5,5.3-213,103-213,222.8h213V3394.2z"/>
		<path class="st0" d="M3647.2,3394.2c-118.5,5.3-213,103-213,222.8h213V3394.2z"/>
		<path class="st0" d="M3667.3,3617.1h213c0-119.8-94.5-217.6-213-222.8V3617.1z"/>
	</g>
	<g>
		<path class="st0" d="M4114.4,3394.2c-118.5,5.3-213,103-213,222.8h213V3394.2z"/>
		<rect x="4134.4" y="3394" class="st0" width="213" height="223.1"/>
		<path class="st0" d="M4634.5,3617.1h213c0-119.8-94.5-217.6-213-222.8V3617.1L4634.5,3617.1z"/>
		<path class="st0" d="M4614.4,3394.2c-118.5,5.3-213,103-213,222.8h213V3394.2z"/>
		<path class="st0" d="M5134.5,3617.1h213c0-119.8-94.5-217.6-213-222.8V3617.1z"/>
		<path class="st0" d="M5114.5,3394.2c-118.5,5.3-213,103-213,222.8h213V3394.2z"/>
		<path class="st0" d="M5634.6,3617.1h213c0-119.8-94.5-217.6-213-222.8V3617.1z"/>
		<path class="st0" d="M5614.5,3394.2c-118.5,5.3-213,103-213,222.8h213V3394.2z"/>
		<path class="st0" d="M6134.7,3617.1h213c0-119.8-94.5-217.6-213-222.8V3617.1z"/>
		<rect x="5901.6" y="3394" class="st0" width="213" height="223.1"/>
		<path class="st0" d="M6634.8,3617.1h213c0-119.8-94.5-217.6-213-222.8V3617.1z"/>
		<path class="st0" d="M6614.7,3394.2c-118.5,5.3-213,103-213,222.8h213V3394.2z"/>
		<path class="st0" d="M7114.7,3394.2c-118.5,5.3-213,103-213,222.8h213V3394.2z"/>
		<path class="st0" d="M7134.8,3617.1h213c0-119.8-94.5-217.6-213-222.8V3617.1z"/>
	</g>
</g>
<g>
	<g>
		<path class="st0" d="M-1466.2,3637.2h-213c0,119.8,94.5,217.6,213,222.8V3637.2z"/>
		<path class="st0" d="M34,3637.2h-213c0,119.8,94.5,217.6,213,222.8V3637.2z"/>
		<path class="st0" d="M554.1,3637.2V3860c118.5-5.3,213-103,213-222.8H554.1z"/>
		<path class="st0" d="M534,3637.2H321c0,119.8,94.5,217.6,213,222.8V3637.2z"/>
		<rect x="-679.1" y="3637.2" class="st0" width="213" height="223.1"/>
		<path class="st0" d="M-446,3637.2V3860c118.5-5.3,213-103,213-222.8H-446z"/>
		<rect x="-1179.2" y="3637.2" class="st0" width="213" height="223.1"/>
		<rect x="-946.1" y="3637.2" class="st0" width="213" height="223.1"/>
		<path class="st0" d="M-1966.3,3637.2h-213c0,119.8,94.5,217.6,213,222.8V3637.2z"/>
		<path class="st0" d="M-1946.2,3637.2V3860c118.5-5.3,213-103,213-222.8H-1946.2z"/>
		<rect x="-2446.3" y="3637.2" class="st0" width="213" height="223.1"/>
		<path class="st0" d="M-2466.3,3637.2h-213c0,119.8,94.5,217.6,213,222.8V3637.2z"/>
	</g>
	<g>
		<path class="st0" d="M2001.3,3637.2h-213c0,119.8,94.5,217.6,213,222.8V3637.2z"/>
		<path class="st0" d="M3501.5,3637.2h-213c0,119.8,94.5,217.6,213,222.8V3637.2z"/>
		<path class="st0" d="M4021.6,3637.2V3860c118.5-5.3,213-103,213-222.8H4021.6z"/>
		<path class="st0" d="M4001.6,3637.2h-213c0,119.8,94.5,217.6,213,222.8V3637.2z"/>
		<rect x="2788.4" y="3637.2" class="st0" width="213" height="223.1"/>
		<path class="st0" d="M3021.5,3637.2V3860c118.5-5.3,213-103,213-222.8H3021.5z"/>
		<rect x="2288.4" y="3637.2" class="st0" width="213" height="223.1"/>
		<rect x="2521.5" y="3637.2" class="st0" width="213" height="223.1"/>
		<path class="st0" d="M1501.3,3637.2h-213c0,119.8,94.5,217.6,213,222.8V3637.2z"/>
		<path class="st0" d="M1521.3,3637.2V3860c118.5-5.3,213-103,213-222.8H1521.3z"/>
		<rect x="1021.3" y="3637.2" class="st0" width="213" height="223.1"/>
		<path class="st0" d="M1001.2,3637.2h-213c0,119.8,94.5,217.6,213,222.8V3637.2z"/>
	</g>
	<g>
		<path class="st0" d="M5468.8,3637.2h-213c0,119.8,94.5,217.6,213,222.8V3637.2z"/>
		<path class="st0" d="M6969.1,3637.2h-213c0,119.8,94.5,217.6,213,222.8V3637.2z"/>
		<path class="st0" d="M7489.2,3637.2V3860c118.5-5.3,213-103,213-222.8H7489.2z"/>
		<path class="st0" d="M7469.1,3637.2h-213c0,119.8,94.5,217.6,213,222.8V3637.2z"/>
		<rect x="6256" y="3637.2" class="st0" width="213" height="223.1"/>
		<path class="st0" d="M6489.1,3637.2V3860c118.5-5.3,213-103,213-222.8H6489.1z"/>
		<rect x="5755.9" y="3637.2" class="st0" width="213" height="223.1"/>
		<rect x="5989" y="3637.2" class="st0" width="213" height="223.1"/>
		<path class="st0" d="M4968.8,3637.2h-213c0,119.8,94.5,217.6,213,222.8V3637.2z"/>
		<path class="st0" d="M4988.9,3637.2V3860c118.5-5.3,213-103,213-222.8H4988.9z"/>
		<rect x="4488.8" y="3637.2" class="st0" width="213" height="223.1"/>
		<path class="st0" d="M4468.7,3637.2h-213c0,119.8,94.5,217.6,213,222.8V3637.2z"/>
	</g>
</g>
<g>
	<g>
		<path class="st0" d="M-2723.3,3880.5c-118.5,5.3-213,103-213,222.8h213V3880.5z"/>
		<rect x="-2703.2" y="3880.3" class="st0" width="213" height="223.1"/>
		<path class="st0" d="M-2203.1,4103.4h213c0-119.8-94.5-217.6-213-222.8V4103.4L-2203.1,4103.4z"/>
		<path class="st0" d="M-2223.2,3880.5c-118.5,5.3-213,103-213,222.8h213V3880.5z"/>
		<path class="st0" d="M-1703.1,4103.4h213c0-119.8-94.5-217.6-213-222.8V4103.4z"/>
		<path class="st0" d="M-1723.2,3880.5c-118.5,5.3-213,103-213,222.8h213V3880.5z"/>
		<path class="st0" d="M-1203,4103.4h213c0-119.8-94.5-217.6-213-222.8V4103.4z"/>
		<path class="st0" d="M-1223.1,3880.5c-118.5,5.3-213,103-213,222.8h213V3880.5z"/>
		<path class="st0" d="M-702.9,4103.4h213c0-119.8-94.5-217.6-213-222.8V4103.4z"/>
		<rect x="-936" y="3880.3" class="st0" width="213" height="223.1"/>
		<path class="st0" d="M-202.9,4103.4h213c0-119.8-94.5-217.6-213-222.8V4103.4z"/>
		<path class="st0" d="M-222.9,3880.5c-118.5,5.3-213,103-213,222.8h213V3880.5z"/>
		<path class="st0" d="M277.1,3880.5c-118.5,5.3-213,103-213,222.8h213V3880.5z"/>
		<path class="st0" d="M297.2,4103.4h213c0-119.8-94.5-217.6-213-222.8V4103.4z"/>
	</g>
	<g>
		<path class="st0" d="M744.3,3880.5c-118.5,5.3-213,103-213,222.8h213V3880.5z"/>
		<rect x="764.3" y="3880.3" class="st0" width="213" height="223.1"/>
		<path class="st0" d="M1264.4,4103.4h213c0-119.8-94.5-217.6-213-222.8L1264.4,4103.4L1264.4,4103.4z"/>
		<path class="st0" d="M1244.3,3880.5c-118.5,5.3-213,103-213,222.8h213V3880.5z"/>
		<path class="st0" d="M1764.4,4103.4h213c0-119.8-94.5-217.6-213-222.8V4103.4z"/>
		<path class="st0" d="M1744.4,3880.5c-118.5,5.3-213,103-213,222.8h213V3880.5z"/>
		<path class="st0" d="M2264.5,4103.4h213c0-119.8-94.5-217.6-213-222.8V4103.4z"/>
		<path class="st0" d="M2244.4,3880.5c-118.5,5.3-213,103-213,222.8h213V3880.5z"/>
		<path class="st0" d="M2764.6,4103.4h213c0-119.8-94.5-217.6-213-222.8V4103.4z"/>
		<rect x="2531.5" y="3880.3" class="st0" width="213" height="223.1"/>
		<path class="st0" d="M3264.7,4103.4h213c0-119.8-94.5-217.6-213-222.8V4103.4z"/>
		<path class="st0" d="M3244.6,3880.5c-118.5,5.3-213,103-213,222.8h213V3880.5z"/>
		<path class="st0" d="M3744.6,3880.5c-118.5,5.3-213,103-213,222.8h213V3880.5z"/>
		<path class="st0" d="M3764.7,4103.4h213c0-119.8-94.5-217.6-213-222.8V4103.4z"/>
	</g>
	<g>
		<path class="st0" d="M4211.8,3880.5c-118.5,5.3-213,103-213,222.8h213V3880.5z"/>
		<rect x="4231.9" y="3880.3" class="st0" width="213" height="223.1"/>
		<path class="st0" d="M4732,4103.4h213c0-119.8-94.5-217.6-213-222.8V4103.4L4732,4103.4z"/>
		<path class="st0" d="M4711.9,3880.5c-118.5,5.3-213,103-213,222.8h213V3880.5z"/>
		<path class="st0" d="M5232,4103.4h213c0-119.8-94.5-217.6-213-222.8V4103.4z"/>
		<path class="st0" d="M5211.9,3880.5c-118.5,5.3-213,103-213,222.8h213V3880.5z"/>
		<path class="st0" d="M5732.1,4103.4h213c0-119.8-94.5-217.6-213-222.8V4103.4z"/>
		<path class="st0" d="M5712,3880.5c-118.5,5.3-213,103-213,222.8h213V3880.5z"/>
		<path class="st0" d="M6232.1,4103.4h213c0-119.8-94.5-217.6-213-222.8V4103.4z"/>
		<rect x="5999" y="3880.3" class="st0" width="213" height="223.1"/>
		<path class="st0" d="M6732.2,4103.4h213c0-119.8-94.5-217.6-213-222.8V4103.4z"/>
		<path class="st0" d="M6712.1,3880.5c-118.5,5.3-213,103-213,222.8h213V3880.5z"/>
		<path class="st0" d="M7212.2,3880.5c-118.5,5.3-213,103-213,222.8h213V3880.5z"/>
		<path class="st0" d="M7232.3,4103.4h213c0-119.8-94.5-217.6-213-222.8V4103.4z"/>
	</g>
</g>
<g>
	<g>
		<path class="st0" d="M-1510.1,4123.5h-213c0,119.8,94.5,217.6,213,222.8V4123.5z"/>
		<path class="st0" d="M-9.9,4123.5h-213c0,119.8,94.5,217.6,213,222.8V4123.5z"/>
		<path class="st0" d="M510.2,4123.5v222.8c118.5-5.3,213-103,213-222.8H510.2z"/>
		<path class="st0" d="M490.1,4123.5h-213c0,119.8,94.5,217.6,213,222.8V4123.5z"/>
		<rect x="-723" y="4123.5" class="st0" width="213" height="223.1"/>
		<path class="st0" d="M-489.9,4123.5v222.8c118.5-5.3,213-103,213-222.8H-489.9z"/>
		<rect x="-1223.1" y="4123.5" class="st0" width="213" height="223.1"/>
		<rect x="-990" y="4123.5" class="st0" width="213" height="223.1"/>
		<path class="st0" d="M-2010.2,4123.5h-213c0,119.8,94.5,217.6,213,222.8V4123.5z"/>
		<path class="st0" d="M-1990.1,4123.5v222.8c118.5-5.3,213-103,213-222.8H-1990.1z"/>
		<rect x="-2490.2" y="4123.5" class="st0" width="213" height="223.1"/>
		<path class="st0" d="M-2510.2,4123.5h-213c0,119.8,94.5,217.6,213,222.8V4123.5z"/>
	</g>
	<g>
		<path class="st0" d="M1957.4,4123.5h-213c0,119.8,94.5,217.6,213,222.8V4123.5z"/>
		<path class="st0" d="M3457.6,4123.5h-213c0,119.8,94.5,217.6,213,222.8V4123.5z"/>
		<path class="st0" d="M3977.7,4123.5v222.8c118.5-5.3,213-103,213-222.8H3977.7z"/>
		<path class="st0" d="M3957.7,4123.5h-213c0,119.8,94.5,217.6,213,222.8V4123.5z"/>
		<rect x="2744.5" y="4123.5" class="st0" width="213" height="223.1"/>
		<path class="st0" d="M2977.6,4123.5v222.8c118.5-5.3,213-103,213-222.8H2977.6z"/>
		<rect x="2244.4" y="4123.5" class="st0" width="213" height="223.1"/>
		<rect x="2477.6" y="4123.5" class="st0" width="213" height="223.1"/>
		<path class="st0" d="M1457.4,4123.5h-213c0,119.8,94.5,217.6,213,222.8V4123.5z"/>
		<path class="st0" d="M1477.4,4123.5v222.8c118.5-5.3,213-103,213-222.8H1477.4z"/>
		<rect x="977.4" y="4123.5" class="st0" width="213" height="223.1"/>
		<path class="st0" d="M957.3,4123.5h-213c0,119.8,94.5,217.6,213,222.8V4123.5z"/>
	</g>
	<g>
		<path class="st0" d="M5424.9,4123.5h-213c0,119.8,94.5,217.6,213,222.8V4123.5z"/>
		<path class="st0" d="M6925.2,4123.5h-213c0,119.8,94.5,217.6,213,222.8V4123.5z"/>
		<path class="st0" d="M7445.3,4123.5v222.8c118.5-5.3,213-103,213-222.8H7445.3z"/>
		<path class="st0" d="M7425.2,4123.5h-213c0,119.8,94.5,217.6,213,222.8V4123.5z"/>
		<rect x="6212.1" y="4123.5" class="st0" width="213" height="223.1"/>
		<path class="st0" d="M6445.2,4123.5v222.8c118.5-5.3,213-103,213-222.8H6445.2z"/>
		<rect x="5712" y="4123.5" class="st0" width="213" height="223.1"/>
		<rect x="5945.1" y="4123.5" class="st0" width="213" height="223.1"/>
		<path class="st0" d="M4924.9,4123.5h-213c0,119.8,94.5,217.6,213,222.8V4123.5z"/>
		<path class="st0" d="M4945,4123.5v222.8c118.5-5.3,213-103,213-222.8H4945z"/>
		<rect x="4444.9" y="4123.5" class="st0" width="213" height="223.1"/>
		<path class="st0" d="M4424.8,4123.5h-213c0,119.8,94.5,217.6,213,222.8V4123.5z"/>
	</g>
</g>
<g>
	<g>
		<path class="st0" d="M-2756.7,4366.8c-118.5,5.3-213,103-213,222.8h213V4366.8z"/>
		<rect x="-2736.7" y="4366.6" class="st0" width="213" height="223.1"/>
		<path class="st0" d="M-2236.6,4589.7h213c0-119.8-94.5-217.6-213-222.8V4589.7L-2236.6,4589.7z"/>
		<path class="st0" d="M-2256.7,4366.8c-118.5,5.3-213,103-213,222.8h213V4366.8z"/>
		<path class="st0" d="M-1736.6,4589.7h213c0-119.8-94.5-217.6-213-222.8V4589.7z"/>
		<path class="st0" d="M-1756.6,4366.8c-118.5,5.3-213,103-213,222.8h213V4366.8z"/>
		<path class="st0" d="M-1236.5,4589.7h213c0-119.8-94.5-217.6-213-222.8V4589.7z"/>
		<path class="st0" d="M-1256.6,4366.8c-118.5,5.3-213,103-213,222.8h213V4366.8z"/>
		<path class="st0" d="M-736.4,4589.7h213c0-119.8-94.5-217.6-213-222.8V4589.7z"/>
		<rect x="-969.5" y="4366.6" class="st0" width="213" height="223.1"/>
		<path class="st0" d="M-236.3,4589.7h213c0-119.8-94.5-217.6-213-222.8V4589.7z"/>
		<path class="st0" d="M-256.4,4366.8c-118.5,5.3-213,103-213,222.8h213V4366.8z"/>
		<path class="st0" d="M243.6,4366.8c-118.5,5.3-213,103-213,222.8h213V4366.8z"/>
		<path class="st0" d="M263.7,4589.7h213c0-119.8-94.5-217.6-213-222.8V4589.7z"/>
	</g>
	<g>
		<path class="st0" d="M710.8,4366.8c-118.5,5.3-213,103-213,222.8h213V4366.8z"/>
		<rect x="730.9" y="4366.6" class="st0" width="213" height="223.1"/>
		<path class="st0" d="M1231,4589.7h213c0-119.8-94.5-217.6-213-222.8V4589.7L1231,4589.7z"/>
		<path class="st0" d="M1210.9,4366.8c-118.5,5.3-213,103-213,222.8h213V4366.8z"/>
		<path class="st0" d="M1731,4589.7h213c0-119.8-94.5-217.6-213-222.8V4589.7z"/>
		<path class="st0" d="M1710.9,4366.8c-118.5,5.3-213,103-213,222.8h213V4366.8z"/>
		<path class="st0" d="M2231.1,4589.7h213c0-119.8-94.5-217.6-213-222.8V4589.7z"/>
		<path class="st0" d="M2211,4366.8c-118.5,5.3-213,103-213,222.8h213V4366.8z"/>
		<path class="st0" d="M2731.1,4589.7h213c0-119.8-94.5-217.6-213-222.8V4589.7z"/>
		<rect x="2498" y="4366.6" class="st0" width="213" height="223.1"/>
		<path class="st0" d="M3231.2,4589.7h213c0-119.8-94.5-217.6-213-222.8V4589.7z"/>
		<path class="st0" d="M3211.1,4366.8c-118.5,5.3-213,103-213,222.8h213V4366.8z"/>
		<path class="st0" d="M3711.2,4366.8c-118.5,5.3-213,103-213,222.8h213V4366.8z"/>
		<path class="st0" d="M3731.3,4589.7h213c0-119.8-94.5-217.6-213-222.8V4589.7z"/>
	</g>
	<g>
		<path class="st0" d="M4178.3,4366.8c-118.5,5.3-213,103-213,222.8h213V4366.8z"/>
		<rect x="4198.4" y="4366.6" class="st0" width="213" height="223.1"/>
		<path class="st0" d="M4698.5,4589.7h213c0-119.8-94.5-217.6-213-222.8V4589.7L4698.5,4589.7z"/>
		<path class="st0" d="M4678.4,4366.8c-118.5,5.3-213,103-213,222.8h213V4366.8z"/>
		<path class="st0" d="M5198.5,4589.7h213c0-119.8-94.5-217.6-213-222.8V4589.7z"/>
		<path class="st0" d="M5178.4,4366.8c-118.5,5.3-213,103-213,222.8h213V4366.8z"/>
		<path class="st0" d="M5698.6,4589.7h213c0-119.8-94.5-217.6-213-222.8V4589.7z"/>
		<path class="st0" d="M5678.5,4366.8c-118.5,5.3-213,103-213,222.8h213V4366.8z"/>
		<path class="st0" d="M6198.7,4589.7h213c0-119.8-94.5-217.6-213-222.8V4589.7z"/>
		<rect x="5965.6" y="4366.6" class="st0" width="213" height="223.1"/>
		<path class="st0" d="M6698.8,4589.7h213c0-119.8-94.5-217.6-213-222.8V4589.7z"/>
		<path class="st0" d="M6678.7,4366.8c-118.5,5.3-213,103-213,222.8h213V4366.8z"/>
		<path class="st0" d="M7178.7,4366.8c-118.5,5.3-213,103-213,222.8h213V4366.8z"/>
		<path class="st0" d="M7198.8,4589.7h213c0-119.8-94.5-217.6-213-222.8V4589.7z"/>
	</g>
</g>
<g>
	<g>
		<path class="st0" d="M-1637.8,4609.7h-213c0,119.8,94.5,217.6,213,222.8V4609.7z"/>
		<path class="st0" d="M-137.5,4609.7h-213c0,119.8,94.5,217.6,213,222.8V4609.7z"/>
		<path class="st0" d="M382.6,4609.7v222.8c118.5-5.3,213-103,213-222.8H382.6z"/>
		<path class="st0" d="M362.5,4609.7h-213c0,119.8,94.5,217.6,213,222.8V4609.7z"/>
		<rect x="-850.6" y="4609.7" class="st0" width="213" height="223.1"/>
		<path class="st0" d="M-617.5,4609.7v222.8c118.5-5.3,213-103,213-222.8H-617.5z"/>
		<rect x="-1350.7" y="4609.7" class="st0" width="213" height="223.1"/>
		<rect x="-1117.6" y="4609.7" class="st0" width="213" height="223.1"/>
		<path class="st0" d="M-2137.8,4609.7h-213c0,119.8,94.5,217.6,213,222.8V4609.7z"/>
		<path class="st0" d="M-2117.7,4609.7v222.8c118.5-5.3,213-103,213-222.8H-2117.7z"/>
		<rect x="-2617.8" y="4609.7" class="st0" width="213" height="223.1"/>
		<path class="st0" d="M-2637.9,4609.7h-213c0,119.8,94.5,217.6,213,222.8V4609.7z"/>
	</g>
	<g>
		<path class="st0" d="M1829.8,4609.7h-213c0,119.8,94.5,217.6,213,222.8V4609.7z"/>
		<path class="st0" d="M3330,4609.7h-213c0,119.8,94.5,217.6,213,222.8V4609.7z"/>
		<path class="st0" d="M3850.1,4609.7v222.8c118.5-5.3,213-103,213-222.8H3850.1z"/>
		<path class="st0" d="M3830,4609.7h-213c0,119.8,94.5,217.6,213,222.8V4609.7z"/>
		<rect x="2616.9" y="4609.7" class="st0" width="213" height="223.1"/>
		<path class="st0" d="M2850,4609.7v222.8c118.5-5.3,213-103,213-222.8H2850z"/>
		<rect x="2116.8" y="4609.7" class="st0" width="213" height="223.1"/>
		<rect x="2349.9" y="4609.7" class="st0" width="213" height="223.1"/>
		<path class="st0" d="M1329.7,4609.7h-213c0,119.8,94.5,217.6,213,222.8V4609.7z"/>
		<path class="st0" d="M1349.8,4609.7v222.8c118.5-5.3,213-103,213-222.8H1349.8z"/>
		<rect x="849.7" y="4609.7" class="st0" width="213" height="223.1"/>
		<path class="st0" d="M829.7,4609.7h-213c0,119.8,94.5,217.6,213,222.8V4609.7z"/>
	</g>
	<g>
		<path class="st0" d="M5297.3,4609.7h-213c0,119.8,94.5,217.6,213,222.8V4609.7z"/>
		<path class="st0" d="M6797.6,4609.7h-213c0,119.8,94.5,217.6,213,222.8V4609.7z"/>
		<path class="st0" d="M7317.7,4609.7v222.8c118.5-5.3,213-103,213-222.8H7317.7z"/>
		<path class="st0" d="M7297.6,4609.7h-213c0,119.8,94.5,217.6,213,222.8V4609.7z"/>
		<rect x="6084.4" y="4609.7" class="st0" width="213" height="223.1"/>
		<path class="st0" d="M6317.5,4609.7v222.8c118.5-5.3,213-103,213-222.8H6317.5z"/>
		<rect x="5584.4" y="4609.7" class="st0" width="213" height="223.1"/>
		<rect x="5817.5" y="4609.7" class="st0" width="213" height="223.1"/>
		<path class="st0" d="M4797.3,4609.7h-213c0,119.8,94.5,217.6,213,222.8V4609.7z"/>
		<path class="st0" d="M4817.4,4609.7v222.8c118.5-5.3,213-103,213-222.8H4817.4z"/>
		<rect x="4317.3" y="4609.7" class="st0" width="213" height="223.1"/>
		<path class="st0" d="M4297.2,4609.7h-213c0,119.8,94.5,217.6,213,222.8V4609.7z"/>
	</g>
</g>
</svg>
