<?xml version="1.0" encoding="utf-8"?>
<!-- Generator: Adobe Illustrator 22.0.1, SVG Export Plug-In . SVG Version: 6.00 Build 0)  -->
<svg version="1.1" id="Layer_1" xmlns="http://www.w3.org/2000/svg" xmlns:xlink="http://www.w3.org/1999/xlink" x="0px" y="0px"
	 viewBox="0 0 7725.2 500" style="enable-background:new 0 0 7725.2 500;" xml:space="preserve">
<style type="text/css">
	.st0{fill:#1D1D1B;}
</style>
<path class="st0" d="M1620.9,0c-276.1,0-500,223.9-500,500h1000C2120.9,223.9,1897,0,1620.9,0z"/>
<path class="st0" d="M2741.7,0c-276.1,0-500,223.9-500,500h1000C3241.7,223.9,3017.9,0,2741.7,0z"/>
<path class="st0" d="M3862.6,0c-276.1,0-500,223.9-500,500h1000C4362.6,223.9,4138.8,0,3862.6,0z"/>
<path class="st0" d="M6104.4,0c-276.1,0-500,223.9-500,500h1000C6604.4,223.9,6380.5,0,6104.4,0z"/>
<path class="st0" d="M7225.2,0c-276.1,0-500,223.9-500,500h1000C7725.2,223.9,7501.4,0,7225.2,0z"/>
<path class="st0" d="M1000,0H500C223.9,0,0,223.9,0,500h1000V0z"/>
<path class="st0" d="M4483.5,0l500,0c276.1,0,500,223.9,500,500h-1000V0z"/>
</svg>
