<?xml version="1.0" encoding="utf-8"?>
<!-- Generator: Adobe Illustrator 22.0.1, SVG Export Plug-In . SVG Version: 6.00 Build 0)  -->
<svg version="1.1" id="Layer_1" xmlns="http://www.w3.org/2000/svg" xmlns:xlink="http://www.w3.org/1999/xlink" x="0px" y="0px"
	 viewBox="0 0 13222.8 168.5" style="enable-background:new 0 0 13222.8 168.5;" xml:space="preserve">
<style type="text/css">
	.st0{fill:#DDBA00;}
</style>
<g id="Layer_1_1_">
</g>
<g id="Layer_2_1_">
	<g>
		<path class="st0" d="M181.3,0.2C91.8,4.1,20.4,78,20.4,168.5h160.9V0.2z"/>
		<rect x="196.5" class="st0" width="160.9" height="168.5"/>
	</g>
	<g>
		<path class="st0" d="M574.3,168.5h160.9C735.2,78,663.8,4.1,574.3,0.2L574.3,168.5L574.3,168.5z"/>
		<path class="st0" d="M559.1,0.2c-89.6,4-160.9,77.8-160.9,168.4h160.9V0.2z"/>
	</g>
	<g>
		<path class="st0" d="M952.1,168.5H1113C1113,78,1041.6,4.1,952.1,0.2V168.5z"/>
		<path class="st0" d="M936.9,0.2c-89.6,4-160.9,77.8-160.9,168.4h160.9V0.2z"/>
	</g>
	<g>
		<path class="st0" d="M1329.9,168.5h160.9c0-90.5-71.4-164.4-160.9-168.4V168.5z"/>
		<path class="st0" d="M1314.7,0.2c-89.6,4-160.9,77.8-160.9,168.4h160.9V0.2z"/>
	</g>
	<g>
		<path class="st0" d="M1707.7,168.5h160.9c0-90.5-71.4-164.4-160.9-168.4V168.5z"/>
		<rect x="1531.6" class="st0" width="160.9" height="168.5"/>
	</g>
	<g>
		<path class="st0" d="M2085.5,168.5h160.9c0-90.5-71.4-164.4-160.9-168.4V168.5z"/>
		<path class="st0" d="M2070.3,0.2c-89.6,4-160.9,77.8-160.9,168.4h160.9V0.2z"/>
	</g>
	<g>
		<path class="st0" d="M2448.1,0.2c-89.6,4-160.9,77.8-160.9,168.4h160.9V0.2z"/>
		<path class="st0" d="M2463.3,168.5h160.9c0-90.5-71.4-164.4-160.9-168.4V168.5z"/>
	</g>
</g>
<g id="Layer_1_2_">
</g>
<g id="Layer_2_2_">
	<g>
		<path class="st0" d="M2825.9,0.2c-89.6,4-160.9,77.8-160.9,168.4h160.9V0.2z"/>
		<rect x="2841" class="st0" width="160.9" height="168.5"/>
	</g>
	<g>
		<path class="st0" d="M3218.9,168.5h160.9c0-90.5-71.4-164.4-160.9-168.4V168.5L3218.9,168.5z"/>
		<path class="st0" d="M3203.7,0.2c-89.6,4-160.9,77.8-160.9,168.4h160.9V0.2z"/>
	</g>
	<g>
		<path class="st0" d="M3596.6,168.5h160.9c0-90.5-71.4-164.4-160.9-168.4V168.5z"/>
		<path class="st0" d="M3581.5,0.2c-89.6,4-160.9,77.8-160.9,168.4h160.9V0.2z"/>
	</g>
	<g>
		<path class="st0" d="M3974.4,168.5h160.9c0-90.5-71.4-164.4-160.9-168.4V168.5z"/>
		<path class="st0" d="M3959.3,0.2c-89.6,4-160.9,77.8-160.9,168.4h160.9V0.2z"/>
	</g>
	<g>
		<path class="st0" d="M4352.2,168.5h160.9c0-90.5-71.4-164.4-160.9-168.4V168.5z"/>
		<rect x="4176.1" class="st0" width="160.9" height="168.5"/>
	</g>
	<g>
		<path class="st0" d="M4730.1,168.5H4891c0-90.5-71.4-164.4-160.9-168.4V168.5z"/>
		<path class="st0" d="M4714.9,0.2c-89.6,4-160.9,77.8-160.9,168.4h160.9V0.2z"/>
	</g>
	<g>
		<path class="st0" d="M5092.7,0.2c-89.6,4-160.9,77.8-160.9,168.4h160.9V0.2z"/>
		<path class="st0" d="M5107.8,168.5h160.9c0-90.5-71.4-164.4-160.9-168.4V168.5z"/>
	</g>
</g>
<g id="Layer_1_3_">
</g>
<g id="Layer_2_3_">
	<g>
		<path class="st0" d="M5470.4,0.2c-89.6,4-160.9,77.8-160.9,168.4h160.9V0.2z"/>
		<rect x="5485.6" class="st0" width="160.9" height="168.5"/>
	</g>
	<g>
		<path class="st0" d="M5863.4,168.5h160.9c0-90.5-71.4-164.4-160.9-168.4V168.5L5863.4,168.5z"/>
		<path class="st0" d="M5848.3,0.2c-89.6,4-160.9,77.8-160.9,168.4h160.9V0.2z"/>
	</g>
	<g>
		<path class="st0" d="M6241.2,168.5h160.9c0-90.5-71.4-164.4-160.9-168.4V168.5z"/>
		<path class="st0" d="M6226,0.2c-89.6,4-160.9,77.8-160.9,168.4H6226V0.2z"/>
	</g>
	<g>
		<path class="st0" d="M6619,168.5H6780C6780,78,6708.6,4.1,6619,0.2V168.5z"/>
		<path class="st0" d="M6603.8,0.2c-89.6,4-160.9,77.8-160.9,168.4h160.9V0.2z"/>
	</g>
	<g>
		<path class="st0" d="M6996.8,168.5h160.9c0-90.5-71.4-164.4-160.9-168.4V168.5z"/>
		<rect x="6820.7" class="st0" width="160.9" height="168.5"/>
	</g>
	<g>
		<path class="st0" d="M7374.6,168.5h160.9c0-90.5-71.4-164.4-160.9-168.4V168.5z"/>
		<path class="st0" d="M7359.5,0.2c-89.6,4-160.9,77.8-160.9,168.4h160.9V0.2z"/>
	</g>
	<g>
		<path class="st0" d="M7737.2,0.2c-89.6,4-160.9,77.8-160.9,168.4h160.9V0.2z"/>
		<path class="st0" d="M7752.4,168.5h160.9c0-90.5-71.4-164.4-160.9-168.4V168.5z"/>
	</g>
</g>
<g id="Layer_1_4_">
</g>
<g id="Layer_2_4_">
	<g>
		<path class="st0" d="M8115,0.2c-89.6,4-160.9,77.8-160.9,168.4H8115V0.2z"/>
		<rect x="8130.2" class="st0" width="160.9" height="168.5"/>
	</g>
	<g>
		<path class="st0" d="M8508,168.5h160.9c0-90.5-71.4-164.4-160.9-168.4L8508,168.5L8508,168.5z"/>
		<path class="st0" d="M8492.8,0.2c-89.6,4-160.9,77.8-160.9,168.4h160.9V0.2z"/>
	</g>
	<g>
		<path class="st0" d="M8885.8,168.5h160.9c0-90.5-71.4-164.4-160.9-168.4V168.5z"/>
		<path class="st0" d="M8870.6,0.2c-89.6,4-160.9,77.8-160.9,168.4h160.9V0.2z"/>
	</g>
	<g>
		<path class="st0" d="M9263.6,168.5h160.9c0-90.5-71.4-164.4-160.9-168.4V168.5z"/>
		<path class="st0" d="M9248.4,0.2c-89.6,4-160.9,77.8-160.9,168.4h160.9V0.2z"/>
	</g>
	<g>
		<path class="st0" d="M9641.4,168.5h160.9c0-90.5-71.4-164.4-160.9-168.4V168.5z"/>
		<rect x="9465.3" class="st0" width="160.9" height="168.5"/>
	</g>
	<g>
		<path class="st0" d="M10019.2,168.5h160.9c0-90.5-71.4-164.4-160.9-168.4V168.5z"/>
		<path class="st0" d="M10004,0.2c-89.6,4-160.9,77.8-160.9,168.4h160.9V0.2z"/>
	</g>
	<g>
		<path class="st0" d="M10381.8,0.2c-89.6,4-160.9,77.8-160.9,168.4h160.9V0.2z"/>
		<path class="st0" d="M10397,168.5h160.9c0-90.5-71.4-164.4-160.9-168.4V168.5z"/>
	</g>
</g>
<g id="Layer_1_5_">
</g>
<g id="Layer_2_5_">
	<g>
		<path class="st0" d="M10759.6,0.2c-89.6,4-160.9,77.8-160.9,168.4h160.9V0.2z"/>
		<rect x="10774.8" class="st0" width="160.9" height="168.5"/>
	</g>
	<g>
		<path class="st0" d="M11152.6,168.5h160.9c0-90.5-71.4-164.4-160.9-168.4V168.5L11152.6,168.5z"/>
		<path class="st0" d="M11137.4,0.2c-89.6,4-160.9,77.8-160.9,168.4h160.9V0.2z"/>
	</g>
	<g>
		<path class="st0" d="M11530.3,168.5h160.9c0-90.5-71.4-164.4-160.9-168.4V168.5z"/>
		<path class="st0" d="M11515.2,0.2c-89.6,4-160.9,77.8-160.9,168.4h160.9V0.2z"/>
	</g>
	<g>
		<path class="st0" d="M11908.1,168.5h160.9c0-90.5-71.4-164.4-160.9-168.4V168.5z"/>
		<path class="st0" d="M11893,0.2c-89.6,4-160.9,77.8-160.9,168.4h160.9V0.2z"/>
	</g>
	<g>
		<path class="st0" d="M12286,168.5h160.9c0-90.5-71.4-164.4-160.9-168.4V168.5z"/>
		<rect x="12109.8" class="st0" width="160.9" height="168.5"/>
	</g>
	<g>
		<path class="st0" d="M12663.8,168.5h160.9c0-90.5-71.4-164.4-160.9-168.4V168.5z"/>
		<path class="st0" d="M12648.6,0.2c-89.6,4-160.9,77.8-160.9,168.4h160.9V0.2z"/>
	</g>
	<g>
		<path class="st0" d="M13026.4,0.2c-89.6,4-160.9,77.8-160.9,168.4h160.9V0.2z"/>
		<path class="st0" d="M13041.5,168.5h160.9c0-90.5-71.4-164.4-160.9-168.4V168.5z"/>
	</g>
</g>
</svg>
