<?xml version="1.0" encoding="utf-8"?>
<!-- Generator: Adobe Illustrator 22.0.1, SVG Export Plug-In . SVG Version: 6.00 Build 0)  -->
<svg version="1.1" id="Layer_1" xmlns="http://www.w3.org/2000/svg" xmlns:xlink="http://www.w3.org/1999/xlink" x="0px" y="0px"
	 viewBox="0 0 7725.2 500" style="enable-background:new 0 0 7725.2 500;" xml:space="preserve">
<style type="text/css">
	.st0{fill:#1D1D1B;}
</style>
<path class="st0" d="M1620.9,500c276.1,0,500-223.9,500-500h-1000C1120.9,276.1,1344.7,500,1620.9,500z"/>
<path class="st0" d="M7225.2,500c276.1,0,500-223.9,500-500h-1000C6725.2,276.1,6949.1,500,7225.2,500z"/>
<path class="st0" d="M1000,500H500C223.9,500,0,276.1,0,0h1000V500z"/>
<path class="st0" d="M4483.5,500h500c276.1,0,500-223.9,500-500l-1000,0V500z"/>
<path class="st0" d="M2241.7,0c0,276.1,223.9,500,500,500V0H2241.7z"/>
<path class="st0" d="M5604.4,0c0,276.1,223.9,500,500,500V0H5604.4z"/>
<rect x="3362.6" class="st0" width="1000" height="500"/>
</svg>
