<?xml version="1.0" encoding="utf-8"?>
<!-- Generator: Adobe Illustrator 22.0.1, SVG Export Plug-In . SVG Version: 6.00 Build 0)  -->
<svg version="1.1" xmlns="http://www.w3.org/2000/svg" xmlns:xlink="http://www.w3.org/1999/xlink" x="0px" y="0px"
	 viewBox="0 0 7725.2 500" style="enable-background:new 0 0 7725.2 500;" xml:space="preserve">
<style type="text/css">
	.st0{fill:rgb(221, 186, 0);}
</style>
<g id="Layer_1">
	<path class="st0" d="M2241.7,0c0,276.1,223.9,500,500,500V0H2241.7z"/>
	<path class="st0" d="M5604.4,0c0,276.1,223.9,500,500,500V0H5604.4z"/>
</g>
<g id="Layer_2">
	<g>
		<path class="st0" d="M7247.7,0v499.5c265.7-11.8,477.5-230.9,477.5-499.5H7247.7z"/>
		<path class="st0" d="M7202.7,0h-477.5c0,268.6,211.8,487.7,477.5,499.5V0z"/>
	</g>
	<g>
		<rect x="4483.5" y="0" class="st0" width="477.5" height="500"/>
		<path class="st0" d="M5006,0v499.5c265.7-11.8,477.5-230.9,477.5-499.5H5006z"/>
	</g>
	<g>
		<rect x="3362.6" y="0" class="st0" width="477.5" height="500"/>
		<rect x="3885.1" y="0" class="st0" width="477.5" height="500"/>
	</g>
	<g>
		<path class="st0" d="M1598.4,0h-477.5c0,268.6,211.8,487.7,477.5,499.5V0z"/>
		<path class="st0" d="M1643.4,0v499.5c265.7-11.8,477.5-230.9,477.5-499.5H1643.4z"/>
	</g>
	<g>
		<rect x="522.5" y="0" class="st0" width="477.5" height="500"/>
		<path class="st0" d="M477.5,0H0c0,268.6,211.8,487.7,477.5,499.5V0z"/>
	</g>
</g>
</svg>
