<?xml version="1.0" encoding="utf-8"?>
<!-- Generator: Adobe Illustrator 22.0.1, SVG Export Plug-In . SVG Version: 6.00 Build 0)  -->
<svg version="1.1" id="Layer_1" xmlns="http://www.w3.org/2000/svg" xmlns:xlink="http://www.w3.org/1999/xlink" x="0px" y="0px"
	 viewBox="0 0 495.3 495.3" style="enable-background:new 0 0 495.3 495.3;" xml:space="preserve">
<style type="text/css">
	.st0{fill:#31312d;}
</style>
<g>
	<path class="st0" d="M429.9,80c-4.7-5.1-9.6-10-14.7-14.7C371.2,24.8,312.3,0,247.6,0S124.1,24.8,80,65.4C74.9,70,70,74.9,65.4,80
		C24.8,124.1,0,183,0,247.6s24.8,123.5,65.4,167.6c4.7,5.1,9.6,10,14.7,14.7c44.1,40.6,103,65.4,167.6,65.4s123.5-24.8,167.6-65.4
		c5.1-4.7,10-9.6,14.7-14.7c40.6-44.1,65.4-103,65.4-167.6S470.5,124.1,429.9,80z M369.5,187.2V308c0,33.9-27.6,61.5-61.5,61.5
		H187.2c-33.9,0-61.5-27.6-61.5-61.5V187.2c0-33.9,27.6-61.5,61.5-61.5H308C342,125.8,369.5,153.3,369.5,187.2z"/>
	<path class="st0" d="M187.2,152.3c-19.3,0-35,15.7-35,35V308c0,19.3,15.7,35,35,35H308c19.3,0,35-15.7,35-35V187.2
		c0-19.3-15.7-35-35-35H187.2z M247.6,310.4c-34.6,0-62.8-28.2-62.8-62.8c0-34.6,28.2-62.8,62.8-62.8c34.6,0,62.8,28.2,62.8,62.8
		C310.4,282.3,282.3,310.4,247.6,310.4z M327.3,183c0,8.2-6.7,14.9-14.9,14.9c-8.2,0-14.9-6.7-14.9-14.9c0-8.2,6.7-14.9,14.9-14.9
		C320.6,168.1,327.3,174.8,327.3,183z"/>
	<path class="st0" d="M247.6,211.4c-20,0-36.3,16.3-36.3,36.3c0,20,16.3,36.3,36.3,36.3c20,0,36.3-16.3,36.3-36.3
		C283.9,227.7,267.6,211.4,247.6,211.4z"/>
</g>
</svg>
