<?xml version="1.0" encoding="utf-8"?>
<!-- Generator: Adobe Illustrator 22.0.1, SVG Export Plug-In . SVG Version: 6.00 Build 0)  -->
<svg version="1.1" id="Layer_1" xmlns="http://www.w3.org/2000/svg" xmlns:xlink="http://www.w3.org/1999/xlink" x="0px" y="0px"
	 viewBox="0 0 495.3 495.3" style="enable-background:new 0 0 495.3 495.3;" xml:space="preserve">
<style type="text/css">
	.st0{fill:#FFFFFF;}
</style>
<path class="st0" d="M429.9,80c-4.7-5.1-9.6-10-14.7-14.7C371.2,24.8,312.3,0,247.6,0S124.1,24.8,80,65.4C74.9,70,70,74.9,65.4,80
	C24.8,124.1,0,183,0,247.6s24.8,123.5,65.4,167.6c4.7,5.1,9.6,10,14.7,14.7c44.1,40.6,103,65.4,167.6,65.4s123.5-24.8,167.6-65.4
	c5.1-4.7,10-9.6,14.7-14.7c40.6-44.1,65.4-103,65.4-167.6S470.5,124.1,429.9,80z M313.5,256c-5.4-5.4-12.9-8.7-21.2-8.6
	c-16.2,0.2-29.2,13.7-29.2,29.9v93.9c0,1.9-1.6,3.5-3.5,3.5l-45.6,0c-1.9,0-3.5-1.6-3.5-3.5V208.6c0-1.9,1.6-3.5,3.5-3.5h44.6
	c1.9,0,3.5,1.6,3.5,3.5v18.7c0,0,0.2,0,0.5,0.1c0.9-1.6,1.8-3.1,2.8-4.5c9.3-13.4,24.8-22.1,42.3-22.1h9.2c32,0,57.9,25.9,57.9,57.9
	v112.4c0,1.9-1.6,3.5-3.5,3.5l-45.7,0c-1.9,0-3.5-1.6-3.5-3.5v-94.2C322.2,268.7,318.9,261.3,313.5,256z M151,181.7
	c-16.2,0.3-30.5-13.2-30.5-30.6c0-16.8,13.8-30.5,30.7-30.5c16.7,0,30.5,13.8,30.4,30.6C181.6,168.9,167,182.1,151,181.7z
	 M177.3,213.5v152.6c0,4.6-3.8,8.4-8.4,8.4h-35.8c-4.6,0-8.4-3.8-8.4-8.4V213.5c0-4.6,3.8-8.4,8.4-8.4h35.8
	C173.5,205.1,177.3,208.9,177.3,213.5z"/>
</svg>
