<?xml version="1.0" encoding="utf-8"?>
<!-- Generator: Adobe Illustrator 22.0.1, SVG Export Plug-In . SVG Version: 6.00 Build 0)  -->
<svg version="1.1" id="Layer_1" xmlns="http://www.w3.org/2000/svg" xmlns:xlink="http://www.w3.org/1999/xlink" x="0px" y="0px"
	 viewBox="0 0 495.3 495.3" style="enable-background:new 0 0 495.3 495.3;" xml:space="preserve">
<style type="text/css">
	.st0{fill:#FFFFFF;}
</style>
<path class="st0" d="M429.9,80c-4.7-5.1-9.6-10-14.7-14.7C371.2,24.8,312.3,0,247.6,0S124.1,24.8,80,65.4C74.9,70,70,74.9,65.4,80
	C24.8,124.1,0,183,0,247.6s24.8,123.5,65.4,167.6c4.7,5.1,9.6,10,14.7,14.7c44.1,40.6,103,65.4,167.6,65.4s123.5-24.8,167.6-65.4
	c5.1-4.7,10-9.6,14.7-14.7c40.6-44.1,65.4-103,65.4-167.6S470.5,124.1,429.9,80z M303.2,191.4c-9.2-8.8-34.2,0.4-34.2,0.4
	c7.4-37,35.3-57.8,53.6-64.2c18.3-6.3,37.7-3.9,49.4,3.5c6.4,4,20.6,14.1,18,57.5c-2.8,46.9-70.9,125.1-88.1,143.5
	c-17.3,18.3-48.7,43.4-73.3,38.8c-24.7-4.6-32.7-36.2-38.8-53.2c-1.4-3.8-23.6-86-28.9-101.9c-5.3-15.9-13.7-20.4-17.6-20.4
	c-6.3,0-24,13.7-24,13.7l-14.1-18c59.9-55,77.6-62.8,87.8-62.8c10.2,0,31.7,5.6,36.7,39.5c4.9,33.8,18.3,92,19.4,96.2
	c1.1,4.2,7.4,20.1,15.5,19c8.1-1.1,30-34.5,37.7-49C309.9,219.6,312.4,200.2,303.2,191.4z"/>
</svg>
